<svg xmlns="http://www.w3.org/2000/svg" viewBox="0 0 733.96 733.96"><defs><style>.cls-1{fill:none;stroke:#00550b;stroke-miterlimit:10;stroke-width:20px;}.cls-2{fill:#04aa00;}</style></defs><g id="Layer_1" data-name="Layer 1"><polygon class="cls-1" points="366.98 14.14 470.32 117.49 616.47 117.49 616.47 263.63 719.82 366.98 616.47 470.32 616.47 616.47 470.32 616.47 366.98 719.82 263.63 616.47 117.49 616.47 117.49 470.32 14.14 366.98 117.49 263.63 117.49 117.49 263.63 117.49 366.98 14.14"/><path class="cls-2" d="M1025.86,450.9A93.13,93.13,0,0,1,886.14,328.32a5.91,5.91,0,0,1-.68-.47L876,337.28a118.75,118.75,0,1,0,167.94,0l-9.16-9.16a7.25,7.25,0,0,1-.62.62A93.15,93.15,0,0,1,1025.86,450.9Z" transform="translate(-593.02 -173.02)"/><rect class="cls-2" x="332.14" y="102" width="69.68" height="69.68"/><rect class="cls-2" x="925.16" y="275.02" width="69.68" height="69.68" transform="translate(-530.95 596.56) rotate(-45)"/></g><g id="optional"><path class="cls-2" d="M1015.14,674.27c-1.33,3.64-2.57,7.1-3.9,10.52-.12.33-.83.61-1.28.62-4.07.09-8.14.12-12.22.15a52.42,52.42,0,0,0-20.47,4.69c-7.94,3.42-15.8,7-23.74,10.39a56.65,56.65,0,0,1-16.63,4.78c-3.92.39-7.75.1-11.18-2.08-3.85-2.45-5.73-6.22-6.72-10.52-.3-1.3-.63-2.59-1-4.23-.65.78-1.06,1.3-1.49,1.78-2.65,2.93-5,6.21-8,8.69-6,4.89-12.94,7.57-20.77,6.65-6-.7-9.88-4.68-12.53-9.86-2.47-4.83-3.26-10.11-3.58-15.45-.39-6.54-.7-13.08-1.06-19.62a8,8,0,0,0-.12-.87c-.6.2-1.15.36-1.68.56a198.55,198.55,0,0,1-40,11c-10.82,1.73-21.7,2.5-32.63,1.07-7.86-1-15.37-3.1-22-7.74-6.85-4.81-10.45-11.66-12.09-19.65a47.54,47.54,0,0,1,1-22.91,11,11,0,0,1,.78-2c.14-.26.53-.38.81-.57.1.29.31.61.27.88-.15,1.17-.45,2.31-.57,3.48-1,10.61,1.69,19.9,9.88,27.14,5,4.44,11.13,6.79,17.58,8.27,9.23,2.12,18.58,2.23,28,1.44,16.84-1.41,33-5.62,48.87-11.43,1-.37,1.19-.83,1.11-1.82-.59-7.41-1-14.83-1.69-22.22-1.08-12-1.78-24-4.73-35.77a2.26,2.26,0,0,1,0-1.34c1.31-3.27,2.68-6.51,4-9.76.06-.14.22-.25.49-.54a6.93,6.93,0,0,1,.5,1.28c1.18,6.82,2.6,13.61,3.43,20.46,1.16,9.54,1.91,19.13,2.73,28.7.49,5.6.76,11.23,1.13,16.84,0,.4.05.81.1,1.38,1.91-.81,3.74-1.53,5.51-2.35,7.13-3.28,14.22-6.64,21.36-9.87a27.62,27.62,0,0,1,9.76-2.77,12.05,12.05,0,0,1,3,.18c3.81.79,5.69,4,4.77,8.2a19.12,19.12,0,0,1-5.27,9.16,148.88,148.88,0,0,0-17,21.85,13.14,13.14,0,0,1-1.2,1.39l-.46-.25c.15-.7.25-1.41.46-2.09,2.21-7.24,6.49-13.2,11.6-18.64,1.35-1.44,2.76-2.82,4.14-4.23a9,9,0,0,0,1-1c.59-.8,1.51-1.62.93-2.67a2.42,2.42,0,0,0-2.85-.82,49.74,49.74,0,0,0-8.31,2.37c-7.74,3.43-15.37,7.11-23,10.7l-.92.41c-2.89,1.27-2.92,1.27-2.74,4.39.39,6.58.35,13.19,1.72,19.67a37.18,37.18,0,0,0,1.44,5.21c2.32,6.3,7.55,9.45,14.23,8.64,7.9-1,14.64-4.14,19.85-10.28,1.14-1.34,2.29-2.68,3.46-4a9.66,9.66,0,0,1,1.8-1.76,12,12,0,0,1,2.3-1,9.26,9.26,0,0,1,.56,2.31c-.12,8.26,5.36,14.06,13.62,14.34a36.51,36.51,0,0,0,15-3c7.11-2.87,14.11-6,21.15-9.07l3.1-1.36c-5-1.53-9.75-2.93-14.48-4.46-4.58-1.49-9.13-3.11-13.68-4.7-.63-.21-1.17-.46-1.64.25-.92,1.41-2.1,1.53-3.75,1.19a106.65,106.65,0,0,0-19.55-1.67c-1.43,0-1.5-.11-1-1.39,1.22-2.94,2.42-5.88,3.7-8.79a2.14,2.14,0,0,1,1.16-1.13,91.41,91.41,0,0,1,9.41-2.66c4.06-.78,8,.13,11.84,1.59,10.35,4,20.89,7.34,31.55,10.31a133.37,133.37,0,0,0,26.93,5c2.8.18,5.62.12,8.44.18A15.43,15.43,0,0,1,1015.14,674.27Z" transform="translate(-593.02 -173.02)"/><path class="cls-2" d="M1155,635.17c.23.42.5.82.69,1.26a25.88,25.88,0,0,1-.59,22.51,16.66,16.66,0,0,1-1.66,2.66c-4,5.28-10,5.77-14.83,1.21a15.71,15.71,0,0,1-4.06-6.29c-.13-.38-.28-.75-.55-1.45-.82.95-1.48,1.67-2.09,2.43-1.81,2.25-3.48,4.64-5.43,6.77-4,4.38-9.17,5.47-14.86,4.26a10.27,10.27,0,0,1-7.57-6.41c-.73-1.72-1-3.61-1.6-5.41a9.24,9.24,0,0,0-.76-1.46c-.46.29-1.07.47-1.37.88a31.45,31.45,0,0,1-9.43,8.77,22.09,22.09,0,0,1-12.57,3.43,9.68,9.68,0,0,1-7.42-3.9,23.5,23.5,0,0,1-4.46-10.56c-.72-3.79-1.33-7.6-2-11.39a17.65,17.65,0,0,0-.64-2.11l-.44-.09a22,22,0,0,0-1.36,2.4c-1,2.4-1.86,4.85-2.85,7.26a12.81,12.81,0,0,1-6.66,7.21,11.44,11.44,0,0,1-6.82.83c.3,1.74.63,3.4.87,5.07,1.57,10.86-2.77,19.26-10.84,26.16a213.92,213.92,0,0,1-30.93,21.39c-3.36,2-6.86,3.71-10.28,5.6A26.53,26.53,0,0,1,983.73,719c-8.19.74-16.4,1.3-24.6,1.91a9,9,0,0,1-2.14-.09c-.34-.06-.63-.41-1-.63.26-.24.48-.59.79-.7,2.76-1,5.53-2,8.32-2.88a228.93,228.93,0,0,0,65.41-34.73A79.9,79.9,0,0,0,1042,671.66a2,2,0,0,0,.6-1.89,54.86,54.86,0,0,0-8.2-19.73,3.8,3.8,0,0,1-.7-3.11c.65-3.11,1.19-6.24,1.79-9.37a7.37,7.37,0,0,1,.39-1c.42.45.72.76,1,1.08,1.73,2,3.23,4.27,5.23,5.94,3.39,2.82,7.42,3.85,11.62,1.9a8.8,8.8,0,0,0,3.73-3.39,91.51,91.51,0,0,0,4-8.66,27.32,27.32,0,0,1,1.4-3.49,2.86,2.86,0,0,1,2-1.38,2.55,2.55,0,0,1,1.83,1.54c.76,2.65,1.25,5.37,1.84,8.06.73,3.31,1.33,6.65,2.25,9.91a16.3,16.3,0,0,0,2.25,4.18c2.31,3.56,5.73,4.73,9.81,4.29a23.8,23.8,0,0,0,13.15-5.8c2.58-2.21,5-4.65,7.46-7a9.35,9.35,0,0,1,2.09-1.58,2,2,0,0,1,1.72,0c.32.27.27,1.13.19,1.7-.12.77-.54,1.51-.62,2.28-.6,5.69,2.65,9.66,8.41,10.5a13.31,13.31,0,0,0,11-3.52,61.16,61.16,0,0,0,5.83-6.4c1.48-1.72,2.79-3.58,4.27-5.29a8,8,0,0,1,2.12-1.55,1.27,1.27,0,0,1,1.13.12,1.13,1.13,0,0,1,.17,1,25.46,25.46,0,0,1-.93,2.47c-1.9,4.81.06,8.81,5.08,10.17a12.07,12.07,0,0,0,9.59-1.28c.8-.47,1.06-1,.53-1.8a8.87,8.87,0,0,0-.6-1.1c-1.74-2-1.88-4.16-1-6.61.76-2.08,1.19-4.28,1.77-6.43.12-.42.28-.84.42-1.26Z" transform="translate(-593.02 -173.02)"/><path class="cls-2" d="M1079.11,629.07c-2.24-1.25-4-2.49-5.12-4.45-1.65-2.88-.94-6.21,2-7.69a75.39,75.39,0,0,1,9.41-3.83q35.68-12.23,71.41-24.35c.58-.2,1.16-.36,2.07-.64a24.57,24.57,0,0,1-.74,3.68c-.14.39-.92.62-1.46.8L1114.31,607q-16.95,5.79-33.89,11.64a24.53,24.53,0,0,0-3.57,1.55c-1.66.9-1.72,1.63-.26,2.8.78.63,1.7,1.08,2.46,1.73a1.8,1.8,0,0,1,.56,1.28A27.66,27.66,0,0,1,1079.11,629.07Z" transform="translate(-593.02 -173.02)"/><path class="cls-2" d="M916.63,722.22c-1.54,2.76-3,5.43-4.51,8.09-.86,1.53-.85,1.52-2.32.68-2.8-1.61-5.59-3.24-8.41-4.79-.81-.44-1-.85-.56-1.68,1.35-2.79,2.69-5.59,3.93-8.43.45-1,.92-1.22,1.87-.65,2.88,1.72,5.79,3.4,8.68,5.09l1.42.85.86-1.53c1.35-2.41,2.71-4.81,4-7.24.37-.69.74-.91,1.47-.48,3.17,1.88,6.37,3.71,9.52,5.63A1.28,1.28,0,0,1,933,719c-1.41,3.08-2.91,6.13-4.35,9.2-.4.84-.86.55-1.41.23q-4.26-2.55-8.53-5.08C918,722.93,917.36,722.6,916.63,722.22Z" transform="translate(-593.02 -173.02)"/><path class="cls-2" d="M900.28,605.54c2.66,2.36,5.23,4.71,7.89,7,.85.73.86,1.2.14,2q-3,3.47-5.91,7c-.67.83-1.13.85-1.9.14q-3.81-3.5-7.72-6.86c-.72-.63-.7-1.06-.1-1.75,2.22-2.57,4.38-5.19,6.63-7.88L892,598.66c-1.7-1.51-1.52-1.22-.21-2.79,1.86-2.23,3.75-4.42,5.57-6.68.63-.79,1.08-.81,1.81-.13q3.82,3.48,7.73,6.86c.66.58.67,1,.11,1.66C904.74,600.19,902.54,602.84,900.28,605.54Z" transform="translate(-593.02 -173.02)"/><path class="cls-2" d="M1019,606.61a24.09,24.09,0,0,1-.59,3.38c-.13.39-.74.74-1.2.9-10,3.43-20,6.82-30,10.25q-16.83,5.77-33.63,11.59a26.55,26.55,0,0,0-4.35,2c-1.28.71-1.29,1.37-.17,2.32a21.83,21.83,0,0,0,2.68,1.88,1.11,1.11,0,0,1,.65,1.41c-.23.88-.35,1.79-.51,2.68-2.25-.26-5.36-3.44-5.87-5.9a5.08,5.08,0,0,1,3-6.05,102,102,0,0,1,10.15-4q29.05-10,58.15-19.92C1017.77,606.93,1018.25,606.82,1019,606.61Z" transform="translate(-593.02 -173.02)"/><path class="cls-2" d="M1142.85,681.59a11.83,11.83,0,0,1,0,1.19,1.51,1.51,0,0,0,1.51,1.79c1.39.12,2.8,0,4.56,0-.56-1.35-1.2-2.26-1.26-3.22a10.3,10.3,0,0,1,.82-3.07,4.94,4.94,0,0,1,1.57,4.28,13.87,13.87,0,0,1-.74,3.29c-.72,2.12-4.53,3-6.6,1.58a8.82,8.82,0,0,1-.76-.61,29.08,29.08,0,0,1-1.48,2.64,6.34,6.34,0,0,1-8.43,2.15,5.4,5.4,0,0,0-5.85.24,34.14,34.14,0,0,0-6,5.16,36.23,36.23,0,0,1-15.79,11.05c-3.4,1.15-7,1.79-10.47,2.63a3.23,3.23,0,0,1-1-.07l-.08-.34a10.2,10.2,0,0,1,1.31-.77c3.71-1.58,7.43-3.1,11.12-4.7a38.31,38.31,0,0,0,14.17-10.62,64.58,64.58,0,0,1,5.35-5.5,12.36,12.36,0,0,1,3.15-2,4.18,4.18,0,0,1,4,.25c3.44,1.94,6.8.91,8.66-2.59.53-1,1.11-2,1.67-3Z" transform="translate(-593.02 -173.02)"/><path class="cls-2" d="M961.13,583.26c-1-.75-1.76-1.41-2.61-1.93-1.28-.77-2.26-.56-2.69.87a68.73,68.73,0,0,0-1.54,7c-.64,3.46-1.14,7-1.84,10.4-.15.72-.92,1.31-1.6,1.88C949.35,596,948,590.7,944.61,586c-.64,1.43-1.66,1.17-2.64.72a10.73,10.73,0,0,1-2.37-1.38,2.8,2.8,0,0,1-.68-3.92l.48-.89c1.21-2.25,1.58-2.38,3.91-1.24a10.19,10.19,0,0,1,4.88,5.09c1.28,2.94,2.22,6,3.31,9.06a1.15,1.15,0,0,0,.43.68c.36-2.44.67-4.9,1.11-7.34s1-4.77,1.54-7.12a8.58,8.58,0,0,1,1.22-2.6c1-1.55,2.45-1.8,3.85-.59a23.05,23.05,0,0,1,2.57,2.91.94.94,0,0,1,.14.81C962,581.18,961.6,582.13,961.13,583.26Z" transform="translate(-593.02 -173.02)"/><path class="cls-2" d="M1148.55,614.27c-.87-.68-1.52-1.25-2.24-1.74-1.6-1.06-2.68-.84-3.18,1-.69,2.49-1.07,5.07-1.53,7.62-.58,3.13-1,6.28-1.72,9.39-.15.73-.9,1.33-1.59,1.92-1.48-5.44-2.87-10.73-6.13-15.29-1.34,1.15-3,.94-4.85-.54a3,3,0,0,1-.94-4.2l.47-.89c1.22-2.26,1.56-2.37,3.91-1.22a11.4,11.4,0,0,1,5,5.19,37.06,37.06,0,0,1,2.08,4.85c.57,1.61.94,3.3,1.48,5.27.29-1.92.49-3.57.8-5.2.62-3.29,1.24-6.59,2-9.85a7.93,7.93,0,0,1,1.4-2.78,2.1,2.1,0,0,1,3.29-.51,24.53,24.53,0,0,1,3,3.22,1,1,0,0,1,.06.81C1149.44,612.24,1149,613.15,1148.55,614.27Z" transform="translate(-593.02 -173.02)"/><path class="cls-2" d="M831,710.08c.8-4.56,1.47-8.78,2.3-13a14.93,14.93,0,0,1,1.46-4c1.08-2,2.75-2.3,4.43-.75a18.77,18.77,0,0,1,2.19,2.58,1.12,1.12,0,0,1,.2.91c-.34,1-.76,1.93-1.23,3.07-.69-.56-1.22-1-1.77-1.42-2.05-1.56-3.29-1.26-3.92,1.25s-.93,5.19-1.39,7.79c-.5,2.89-1,5.79-1.59,8.65-.16.72-.93,1.3-1.61,1.87-1.49-5.44-2.86-10.74-6.23-15.42-.66,1.42-1.66,1.17-2.65.71a10.71,10.71,0,0,1-2.29-1.29,2.83,2.83,0,0,1-.75-4l.48-.89c1.21-2.27,1.54-2.38,3.9-1.22a10.11,10.11,0,0,1,4.88,5.09c1.29,2.94,2.23,6,3.32,9.06C830.82,709.31,830.86,709.54,831,710.08Z" transform="translate(-593.02 -173.02)"/><path class="cls-2" d="M992.91,650.3c.44-2.84.85-6.17,1.49-9.45a35.34,35.34,0,0,1,1.79-6.4c1.11-2.79,3.12-3.05,5.26-.91.15.14.29.3.43.45,1.85,2.09,1.87,3,0,5.52-.68-.54-1.33-1.11-2-1.6-1.64-1.11-2.73-.88-3.25,1-.69,2.45-1,5-1.51,7.5-.59,3.21-1.09,6.44-1.77,9.63-.15.67-.91,1.21-1.57,1.73-1.46-5.44-2.84-10.72-6.21-15.41-.69,1.47-1.73,1.15-2.68.68a10.74,10.74,0,0,1-2.62-1.65,2.65,2.65,0,0,1-.49-3.45c.23-.44.48-.88.72-1.32,1-1.9,1.24-2,3.23-1.19a10.21,10.21,0,0,1,5.5,5.46C990.68,644,991.77,647.34,992.91,650.3Z" transform="translate(-593.02 -173.02)"/><path class="cls-2" d="M1078.19,688.06c-.2.3-.34.55-.52.77-2.1,2.51-4.22,5-6.3,7.52-.56.69-.95.57-1.51,0q-3.9-3.66-7.84-7.27c-.55-.51-.58-.89-.09-1.46q3.22-3.78,6.39-7.6c.43-.52.81-.65,1.35-.15,2.66,2.5,5.34,5,8,7.46A4.29,4.29,0,0,1,1078.19,688.06Z" transform="translate(-593.02 -173.02)"/><path class="cls-2" d="M1042.45,617.22a8.58,8.58,0,0,1-.56.83c-2.08,2.48-4.17,4.94-6.23,7.44-.52.63-.91.68-1.52.1q-3.89-3.68-7.85-7.28c-.56-.51-.59-.9-.1-1.47,2.15-2.52,4.25-5.08,6.43-7.58a1.24,1.24,0,0,1,1.19-.17c2.78,2.49,5.51,5,8.25,7.59A3.15,3.15,0,0,1,1042.45,617.22Z" transform="translate(-593.02 -173.02)"/><path class="cls-2" d="M1093.25,591.75c1.55,3,.1,9-2.38,10.93-1.93,1.53-3.84,1.36-5.41-.54-2.47-3-2.62-6.53-1.66-10,1.11-4.07,2.63-8,4-12.05.45-1.33.85-2.68,1.27-4l.38,0a3.32,3.32,0,0,1,.24,1.24c-.4,2-.89,4.08-1.34,6.12-.67,3-1.44,5.94-1.94,8.94a7,7,0,0,0,.44,3.44,2.59,2.59,0,0,0,4.8.62,14.21,14.21,0,0,0,1.33-3.34C1093.08,592.62,1093.14,592.17,1093.25,591.75Z" transform="translate(-593.02 -173.02)"/><path class="cls-2" d="M1002.86,591.55a8.39,8.39,0,0,1,.08,4.76,18,18,0,0,1-2,5.19c-1.85,2.75-4.7,2.6-6.61-.1-2.12-3-2.18-6.35-1.26-9.66,1.05-3.82,2.48-7.55,3.73-11.32.51-1.54,1-3.09,1.47-4.63l.36,0a3.34,3.34,0,0,1,.27,1.24c-.33,1.77-.72,3.52-1.12,5.27-.73,3.22-1.59,6.42-2.17,9.66a7.38,7.38,0,0,0,.43,3.56,2.6,2.6,0,0,0,4.8.66,14.23,14.23,0,0,0,1.34-3.34,10.72,10.72,0,0,0,.31-1.3Z" transform="translate(-593.02 -173.02)"/><path class="cls-2" d="M823.34,607.85a10.53,10.53,0,0,1,0,2.45c-.78,3.17-1.79,6.29-2.48,9.47a45.87,45.87,0,0,0-.66,6.21,3.81,3.81,0,0,0,.38,1.57,2.61,2.61,0,0,0,2.13,1.91,2.67,2.67,0,0,0,2.78-1.35,22.2,22.2,0,0,0,1.26-3.24c.14-.41.2-.85.3-1.27h.33a5.61,5.61,0,0,1,.3,1,13.56,13.56,0,0,1-1.52,8.15,6.56,6.56,0,0,1-1.52,1.8c-1.88,1.53-3.73,1.34-5.3-.48a9.66,9.66,0,0,1-2-8.52,85.44,85.44,0,0,1,2.44-8.68c.87-2.8,1.86-5.55,2.81-8.33a6.28,6.28,0,0,1,.3-.65Z" transform="translate(-593.02 -173.02)"/><path class="cls-2" d="M1054.36,583.78c-1-.75-1.75-1.42-2.6-1.93-1.29-.78-2.27-.56-2.7.86a66.26,66.26,0,0,0-1.53,7c-.65,3.46-1.14,6.94-1.85,10.39-.14.72-.92,1.31-1.59,1.88-1.51-5.44-2.86-10.75-6.25-15.42-.64,1.42-1.65,1.17-2.63.71a10.06,10.06,0,0,1-2.38-1.38,2.79,2.79,0,0,1-.67-3.92c.15-.3.31-.59.47-.89,1.21-2.25,1.58-2.38,3.91-1.23a10.11,10.11,0,0,1,4.88,5.09c1.29,2.94,2.23,6,3.31,9.06a1.27,1.27,0,0,0,.43.68c.36-2.45.67-4.91,1.11-7.35s1-4.76,1.54-7.12a9.09,9.09,0,0,1,1.22-2.6,2.34,2.34,0,0,1,3.85-.58,21.06,21.06,0,0,1,2.57,2.91,1,1,0,0,1,.15.8C1055.25,581.7,1054.83,582.64,1054.36,583.78Z" transform="translate(-593.02 -173.02)"/><path class="cls-2" d="M1151.75,717.84c1.55,3,.1,9-2.38,10.93-1.93,1.53-3.84,1.36-5.41-.54-2.47-3-2.62-6.53-1.66-10,1.11-4.07,2.63-8,4-12.05.45-1.33.85-2.68,1.27-4l.38,0a3.32,3.32,0,0,1,.24,1.24c-.4,2-.89,4.09-1.34,6.12-.67,3-1.44,5.94-1.94,8.94a7.15,7.15,0,0,0,.44,3.44,2.59,2.59,0,0,0,4.8.62,14.21,14.21,0,0,0,1.33-3.34A11.4,11.4,0,0,0,1151.75,717.84Z" transform="translate(-593.02 -173.02)"/><path class="cls-2" d="M1073.23,723.55c.44-2.84.86-6.17,1.49-9.45a35.83,35.83,0,0,1,1.79-6.39c1.11-2.79,3.13-3.06,5.26-.92a6.17,6.17,0,0,1,.43.46c1.85,2.08,1.87,3,.06,5.51-.68-.53-1.34-1.11-2-1.6-1.63-1.11-2.72-.87-3.25,1-.68,2.45-1,5-1.5,7.49-.6,3.21-1.1,6.44-1.78,9.63-.14.67-.9,1.21-1.56,1.73-1.46-5.43-2.84-10.72-6.22-15.41-.68,1.48-1.72,1.15-2.67.68a10.8,10.8,0,0,1-2.63-1.65,2.62,2.62,0,0,1-.48-3.44c.23-.45.48-.89.71-1.33,1-1.9,1.25-2,3.24-1.19a10.25,10.25,0,0,1,5.5,5.46C1071,717.3,1072.1,720.59,1073.23,723.55Z" transform="translate(-593.02 -173.02)"/></g></svg>