<svg id="Layer_1" data-name="Layer 1" xmlns="http://www.w3.org/2000/svg" viewBox="0 0 733.96 733.96"><defs><style>.cls-1{fill:#e80a0a;}.cls-2{fill:none;stroke:#b20b0b;stroke-miterlimit:10;stroke-width:20px;}</style></defs><path class="cls-1" d="M1106.92,594.65c-8-2.49-16-4.91-24-7.46-4-1.27-7.83-2.76-11.73-4.21-.88-.32-1.57-.42-2.15.46-1.13,1.74-2.58,1.74-4.57,1.44-5.62-.87-11.3-1.38-17-1.9-2.81-.25-5.65-.2-8.48-.29-1.24,0-1.36-.18-.91-1.28,1.64-4,3.29-8,5-11.94a1.72,1.72,0,0,1,.72-.93c5.22-2.13,10.52-3.91,16.26-3.86a37.88,37.88,0,0,1,13.32,3,395.5,395.5,0,0,0,47.67,14.86,134.17,134.17,0,0,0,35.57,4.25c1.93-.06,2,0,1.29,1.87-1.39,3.81-2.81,7.62-4.15,11.45a1.42,1.42,0,0,1-1.61,1.12c-5.29,0-10.57.09-15.86.14-9.17.09-17.83,2.48-26.18,6.08-11,4.74-21.9,9.64-32.92,14.3a105.39,105.39,0,0,1-25.13,7.54c-7.32,1.12-14.59,1.17-21.64-1.59a30,30,0,0,1-10.13-6.68c-3-2.93-3.92-6.77-4.71-10.67-.14-.73-.2-1.48-.34-2.22s-.11-2-.63-2.4a9.92,9.92,0,0,0-3.93-2c-3.94-.74-7.77.28-11.53,1.36-9,2.56-17.33,6.55-25.53,10.88-10.35,5.46-20.43,11.37-29.62,18.65a108.46,108.46,0,0,0-8.32,7.88,13.69,13.69,0,0,0-2,2.72c-1.42,2.34-1.27,3.33.79,5.18,2.59,2.33,5.8,3.36,9.07,4.21,7.28,1.91,14.73,2,22.18,2.16,13.4.2,26.79-.36,40.16-1.36,12.73-.95,25.45-2.08,38.19-3.07,10.74-.83,21.48-1.65,32.23-2.31,8-.49,15.88.06,23.44,3.08a36.07,36.07,0,0,1,13.2,8.53c6.37,6.76,8,14.58,4.85,23.3-1,2.92-2.53,5.69-3.67,8.59-1.66,4.21-4.9,6-9.19,6.54-7.93.94-15.83,2.06-23.77,2.93-8.51.94-17,1.75-25.58,2.49s-17.33,1.43-26,2c-9.59.62-19.18,1.2-28.79,1.58q-21.08.83-42.17,1.31c-9.11.21-18.23.24-27.34.14-4.26,0-8.51-.61-12.91-1-.44,1.7-.92,3.7-1.46,5.69s-1.08,3.91-1.65,5.86c-.71,2.44-2.16,3.23-4.65,2.53-2.71-.77-4.88-2.45-7-4.14-7.47-5.83-10.18-13.79-10.34-22.91,0-.46,0-.92,0-1.37a3.36,3.36,0,0,0-.1-.38c-.5.63-.9,1.16-1.34,1.66-2.51,2.82-4.7,6-7.6,8.38-6.22,5-13.38,8.08-21.53,8.12-5.57,0-10.41-1.85-13.86-6.39-2.44-3.21-4.67-6.58-7-9.9-1.39-2-2.65-4.12-4.08-6.12a18.2,18.2,0,0,0-2.52-2.75c-3.41-3.13-6.26-3.24-10.11-.67-5.8,3.85-9.54,9.35-12.35,15.52-3,6.65-5.76,13.44-8.72,20.12-2,4.42-4.2,8.72-7.85,12-3,2.7-6.38,4.26-10.5,3.13a12.2,12.2,0,0,1-5.81-3.94,41,41,0,0,1-10-21.27,96.41,96.41,0,0,1,.24-32.9,48.61,48.61,0,0,1,1.56-5.64c.12-.37.67-.61,1-.91.21.42.62.86.58,1.25-.31,3.06-.74,6.1-1.06,9.16-1,9.71-1,19.38,1.89,28.81a26.72,26.72,0,0,0,5.62,10.2c3.79,4.22,8.22,4.53,12.92,1.29a18.8,18.8,0,0,0,5.86-6.88c2.47-4.7,4.81-9.48,7-14.3,2.89-6.22,5.59-12.53,9.31-18.33a41.63,41.63,0,0,1,9.12-10.5,22.09,22.09,0,0,1,3-2c3.88-2.16,7.58-1.77,11,1a27.74,27.74,0,0,1,5.7,6.88c2.65,4,5.26,8.1,8.13,12,3.92,5.25,9.51,6.85,15.74,6.09a35.5,35.5,0,0,0,24.63-14.11c1.47-1.91,2.77-3.95,4.19-5.9a24.87,24.87,0,0,1,2.48-3.11c1.4-1.39,2.72-1,3.43.84a6.18,6.18,0,0,1,.27.83c1.9,7.58,6.83,12.53,13.65,15.91a32.07,32.07,0,0,0,14.5,3.14c14.32,0,28.63-.08,43-.34,10.35-.19,20.71-.64,31.06-1.12,9.64-.44,19.28-1,28.91-1.67q13.5-.9,27-2.09,13.11-1.17,26.19-2.63c6.82-.76,13.62-1.66,20.42-2.6a33.13,33.13,0,0,0,4.92-1.32c1.1-.34,1.46-1.11.72-2.06a48.55,48.55,0,0,0-5-6A39,39,0,0,0,1081.14,665c-7.65,0-15.31.35-23,.79-8.22.47-16.43,1.23-24.64,1.85s-16.42,1.28-24.64,1.84c-17.44,1.2-34.9,2.06-52.39,1.53-6.44-.2-12.9-.7-19.1-2.65a30.89,30.89,0,0,1-6.65-3,8.53,8.53,0,0,1-4.12-7.15c-.6-8.46,2.3-15.79,7.17-22.45a87.14,87.14,0,0,1,22.27-21.27,188.84,188.84,0,0,1,43.16-21.82c5-1.73,10.18-3.17,15.6-2.93a25,25,0,0,1,3.2.48,5.07,5.07,0,0,1,4.59,4.67c.28,2.13.83,4.24,1.14,6.37,1,6.65,5,10.37,11.23,12.22a43.63,43.63,0,0,0,19.64.84c9.89-1.57,19.2-5,28.34-8.94,7.9-3.38,15.73-6.94,23.59-10.42A2.38,2.38,0,0,0,1106.92,594.65Zm-203,104.17-.32.24c1,2.34,4.34,6.51,6.13,7.08Z" transform="translate(-593.02 -173.02)"/><path class="cls-1" d="M946.77,576.85c-.24,1.45-.39,2.67-.69,3.86-.07.27-.63.49-1,.62q-12,4.09-24,8.16-36.37,12.39-72.75,24.79a23.43,23.43,0,0,0-4.06,1.82c-1.4.78-1.43,1.54-.19,2.56a30.6,30.6,0,0,0,3,2.07,1,1,0,0,1,.53,1.18c-.21.84-.27,1.71-.49,2.55-.06.22-.59.56-.7.5-2.58-1.51-5-3.22-5.59-6.44a5.11,5.11,0,0,1,2.26-5.71,26.38,26.38,0,0,1,5.22-2.51q32.87-11.28,65.76-22.45,15.48-5.28,31-10.52C945.52,577.17,946,577.06,946.77,576.85Z" transform="translate(-593.02 -173.02)"/><path class="cls-1" d="M817.44,645.69c-2.08,3.71-4.12,7.28-6.07,10.9-.57,1.07-1.06,1.2-2.11.58-3.79-2.25-7.63-4.42-11.48-6.56-.85-.47-.95-.91-.54-1.77,1.8-3.75,3.57-7.51,5.27-11.3.47-1,1-1.16,1.9-.62,4.34,2.54,8.69,5.06,13.13,7.63.17-.26.38-.55.55-.86,1.89-3.37,3.81-6.72,5.63-10.13.58-1.11,1.14-1.18,2.13-.59q6,3.54,11.94,7c.74.43.83.88.46,1.63q-2.78,5.71-5.47,11.47c-.49,1.06-1,1-1.91.5-4.06-2.45-8.15-4.84-12.23-7.24C818.28,646.11,817.91,645.93,817.44,645.69Z" transform="translate(-593.02 -173.02)"/><path class="cls-1" d="M881.28,719.48a6.71,6.71,0,0,1,4.9-3,3.29,3.29,0,0,1,3.88,2.9,9.66,9.66,0,0,1-1.56,6.84c-.77,1.24-2.12,1.19-3.38.89a10.42,10.42,0,0,1-4.42-2.52l-1-1c-.21.6-.4,1.13-.58,1.67a11.31,11.31,0,0,1-5,6.27c-3.35,2-7,3.24-10.68,4.63a39.58,39.58,0,0,1-11.21,2.23c-1.92.15-3.84.39-5.76.54a2.22,2.22,0,0,1-.88-.29c.23-.24.43-.61.71-.71,3.34-1.11,6.72-2.08,10-3.3,5.57-2.07,11.08-4.29,16.6-6.47a9.72,9.72,0,0,0,5.88-6,15.63,15.63,0,0,1,1.25-2.4C880.26,719.21,880.62,718.74,881.28,719.48Zm1.78,1.25c1.17,1.3,3.52,2.52,4.6,2.4C887.22,720.58,885.17,719.51,883.06,720.73Z" transform="translate(-593.02 -173.02)"/><path class="cls-1" d="M901.33,612.58a20,20,0,0,0-2-1,2.55,2.55,0,0,0-3.24.87c-.4.48-.74,1-1.13,1.49a7.39,7.39,0,0,1-.7.67l-.3-.1a3.16,3.16,0,0,1,0-1,36.06,36.06,0,0,1,1.81-5.05c1.22-2.38,3.41-3,5.83-1.83,2.91,1.41,4.83,3.87,6.55,6.51a1,1,0,0,1,0,.68,27.86,27.86,0,0,0-.62,2.82c-.11,1-.6,1-1.41,1-2.21-.06-4.43-.11-6.63.05a6.57,6.57,0,0,0-4.06,1.91,3.13,3.13,0,0,0-1.05,3.16c.76,3.66,1.39,7.35,2.15,11,1.39,6.68,2.71,13.38,2.83,20.24a34.37,34.37,0,0,1-1,10,5.63,5.63,0,0,1-.42.94l-.31,0a5,5,0,0,1-.15-.92c.4-10.9-1.91-21.42-4.22-32a81,81,0,0,1-1.34-8.92,10.54,10.54,0,0,1,.44-3.59c1-3.78,3.67-5.93,7.9-6.44l1-.14Z" transform="translate(-593.02 -173.02)"/><path class="cls-1" d="M1155.15,614.12c-.41,1.19-.88,2.36-1.22,3.57a3.47,3.47,0,0,1-2.42,2.5q-26.1,9.9-52.15,19.92a40.48,40.48,0,0,0-4.25,2.28,3.76,3.76,0,0,1-.77.17c0-.27-.16-.56-.08-.79a33.89,33.89,0,0,1,1.71-4.54,4,4,0,0,1,2-1.61q6.67-2.75,13.44-5.31,21-8.05,42-16c.46-.18.93-.29,1.39-.43Z" transform="translate(-593.02 -173.02)"/><path class="cls-1" d="M803.57,568.71c-.6,1.74-1.66,1.37-2.69.93a11.27,11.27,0,0,1-2.28-1.2,3.15,3.15,0,0,1-1-4.53c.34-.64.72-1.26,1-1.92a1.45,1.45,0,0,1,2-.83,9.67,9.67,0,0,1,5,3.34c2.56,3.09,3.88,6.76,4.88,10.57.24.93.44,1.86.73,3.08.62-4,1.14-7.74,1.81-11.44.35-1.93,1-3.81,1.51-5.71a4.65,4.65,0,0,1,.39-.85c1.34-2.53,3.17-2.84,5.24-.9a10.16,10.16,0,0,1,.72.75c1.83,2.12,1.89,3,.46,5.38-.33.55-.61.39-1,.08a17.76,17.76,0,0,0-2.14-1.63c-1.27-.75-2.26-.49-2.73.92a41.5,41.5,0,0,0-1.42,5.82c-.69,3.95-1.25,7.93-1.92,11.89a3.1,3.1,0,0,1-1.24,2.29c-.81.53-1,.49-1.21-.5a46.32,46.32,0,0,0-4.2-12.33C805,570.89,804.31,569.92,803.57,568.71Z" transform="translate(-593.02 -173.02)"/><path class="cls-1" d="M861.1,667.3c-.56,1.62-1.57,1.25-2.6.89a6.27,6.27,0,0,1-3.29-2.23,2.73,2.73,0,0,1-.23-3.12c.43-.75.86-1.51,1.21-2.29a1.5,1.5,0,0,1,2-.88,9.48,9.48,0,0,1,4.52,2.83,24.09,24.09,0,0,1,5,9.93,32.69,32.69,0,0,0,1.14,3.71c.23-1.58.43-3.16.72-4.73.67-3.6,1.33-7.21,2.13-10.79a8.84,8.84,0,0,1,1.44-3,2.29,2.29,0,0,1,3.61-.59,26.89,26.89,0,0,1,3.13,3.43,1.09,1.09,0,0,1,0,.87c-.28.78-.65,1.53-.94,2.31s-.62.67-1.14.22a14.68,14.68,0,0,0-2.06-1.56c-1.29-.74-2.26-.48-2.74.91a37.37,37.37,0,0,0-1.36,5.42c-.8,4.43-1.52,8.87-2.27,13.3,0,.2-.07.46-.2.57-.47.38-1,.7-1.49,1.05a8,8,0,0,1-.56-1.36c-1.12-4.88-2.57-9.63-5.34-13.88C861.66,668.06,861.45,667.79,861.1,667.3Z" transform="translate(-593.02 -173.02)"/><path class="cls-1" d="M1137,644.6a61.62,61.62,0,0,0-7.81,0c-1.15.14-2.16,1.39-3.24,2.11a8.74,8.74,0,0,1-1,.52,5.76,5.76,0,0,1-.23-1.14,7,7,0,0,1,.25-1.34c.68-3.22,2.47-5,5.89-5a65.3,65.3,0,0,1,8.9.82c2.2.28,2.09.35,1.53,2.58a9.55,9.55,0,0,1-2.63,4.13c-2.21,2.37-4.47,4.7-6.62,7.13a14.71,14.71,0,0,0-2.12,3.22c-1.37,2.81-.4,4.64,2.68,5.28a16.69,16.69,0,0,0,7.17-.39c4.53-1,8.3-3.5,11.82-6.42.71-.59,1.49-1.1,2.23-1.64l.34.27a3,3,0,0,1-.34,1c-2.8,3.51-5.55,7.09-9.24,9.75-3.91,2.81-8.25,4.08-13.07,2.92a6,6,0,0,1-4.86-6.24,15.52,15.52,0,0,1,3.71-9.84C1132.32,649.82,1134.53,647.44,1137,644.6Z" transform="translate(-593.02 -173.02)"/><path class="cls-1" d="M939.66,608.59a2.49,2.49,0,0,1,.26.61,14.66,14.66,0,0,1-1.46,9,7.09,7.09,0,0,1-.74,1.13c-2.2,2.73-5.06,2.64-7.07-.23-2.12-3.06-2.22-6.47-1.38-9.89.76-3.08,1.88-6.07,2.86-9.1.81-2.5,1.64-5,2.46-7.48.09-.25.22-.48.33-.72l.33,0a3.1,3.1,0,0,1,.29,1.1,37.38,37.38,0,0,1-.7,4.08c-.86,3.42-1.94,6.8-2.63,10.25a15.34,15.34,0,0,0,.13,5.14,2.71,2.71,0,0,0,2.35,2.45,3,3,0,0,0,3.23-1.8,26,26,0,0,0,1.18-3.52c.1-.31.16-.63.24-.94Z" transform="translate(-593.02 -173.02)"/><path class="cls-1" d="M870.34,635.91a3.36,3.36,0,0,1,.24.74,14.45,14.45,0,0,1-1.66,9.14,6.54,6.54,0,0,1-1.16,1.46c-2.07,2-4.44,1.77-6.18-.48a10.81,10.81,0,0,1-1.81-9.49c.8-3.39,2-6.68,3.05-10,.78-2.44,1.6-4.87,2.41-7.29a7.23,7.23,0,0,1,.41-.84l.38.05a5.73,5.73,0,0,1,.13,1.63c-.58,2.56-1.24,5.11-1.84,7.66s-1.26,4.9-1.63,7.39a11.69,11.69,0,0,0,.37,4.1,2.63,2.63,0,0,0,2.24,2.19,2.87,2.87,0,0,0,3.08-1.5,21.23,21.23,0,0,0,1.26-3.37c.16-.46.25-.95.38-1.42Z" transform="translate(-593.02 -173.02)"/><path class="cls-1" d="M834.12,723.42a2.75,2.75,0,0,1,.32.73,17.61,17.61,0,0,1-1.75,10.77,8.57,8.57,0,0,1-.9,1.35c-2.63,3.28-6.07,3.17-8.47-.28-2.55-3.66-2.67-7.76-1.66-11.86.91-3.69,2.25-7.28,3.43-10.91,1-3,2-6,3-9,.1-.3.26-.57.39-.86l.39-.06a3.73,3.73,0,0,1,.36,1.32,45.21,45.21,0,0,1-.85,4.9c-1,4.1-2.33,8.15-3.16,12.29a18.84,18.84,0,0,0,.16,6.17,3.24,3.24,0,0,0,2.83,2.94,3.59,3.59,0,0,0,3.87-2.16,30.28,30.28,0,0,0,1.41-4.22c.12-.37.2-.76.29-1.13Z" transform="translate(-593.02 -173.02)"/><path class="cls-1" d="M779.54,652.73a2.66,2.66,0,0,1,.26.61,14.68,14.68,0,0,1-1.46,9,6.44,6.44,0,0,1-.75,1.12c-2.19,2.74-5.06,2.65-7.06-.23-2.12-3.05-2.22-6.47-1.38-9.88.75-3.08,1.88-6.07,2.86-9.1.8-2.5,1.63-5,2.46-7.49.09-.25.22-.48.33-.72l.33,0a3.15,3.15,0,0,1,.29,1.11,37.8,37.8,0,0,1-.7,4.08c-.86,3.42-1.94,6.79-2.63,10.25a15.28,15.28,0,0,0,.13,5.13,2.7,2.7,0,0,0,2.35,2.46,3,3,0,0,0,3.23-1.8,26.44,26.44,0,0,0,1.18-3.52c.09-.31.16-.63.24-.95Z" transform="translate(-593.02 -173.02)"/><path class="cls-1" d="M991.24,578.33c-1.27-.22-2.54-.49-3.82-.63a43.43,43.43,0,0,0-12.57.44,3.92,3.92,0,0,1-1-.09,3.42,3.42,0,0,1,.21-1c1.54-2.61,3.09-5.22,4.68-7.8a1.55,1.55,0,0,1,1-.65,40.74,40.74,0,0,1,16.77,1,10.07,10.07,0,0,1,2.22,1,.92.92,0,0,1,.31.84c-2.36,4-4.24,8.29-7.48,11.76-2.31,2.47-5.16,3.09-8.26,3.43s-6.21.79-9.32,1.13c-.52.06-1.46-.07-1.52-.28-.21-.84.68-.77,1.16-1,4.6-1.93,9.22-3.78,13.8-5.74a42.49,42.49,0,0,0,3.9-2.17Z" transform="translate(-593.02 -173.02)"/><path class="cls-1" d="M1147.18,568.55c-1.3-.21-2.59-.5-3.9-.64a44.86,44.86,0,0,0-12.88.45,4.11,4.11,0,0,1-1-.09,3.48,3.48,0,0,1,.22-1q2.36-4,4.79-8a1.58,1.58,0,0,1,1-.66,41.63,41.63,0,0,1,17.17,1,10.78,10.78,0,0,1,2.27,1,1,1,0,0,1,.32.86c-2.42,4.1-4.34,8.48-7.66,12-2.36,2.52-5.28,3.17-8.46,3.51s-6.35.81-9.54,1.16c-.52.06-1.49-.07-1.55-.29-.21-.86.7-.79,1.19-1,4.7-2,9.44-3.86,14.13-5.87a43.4,43.4,0,0,0,4-2.22Z" transform="translate(-593.02 -173.02)"/><path class="cls-1" d="M1146.56,690.55c-1.3-.22-2.59-.5-3.9-.64a44.09,44.09,0,0,0-12.87.45,3.64,3.64,0,0,1-1-.1,3.12,3.12,0,0,1,.22-1q2.36-4,4.78-8a1.55,1.55,0,0,1,1-.66,41.65,41.65,0,0,1,17.17,1,10,10,0,0,1,2.26,1c.22.12.43.69.32.86-2.41,4.1-4.33,8.48-7.66,12-2.35,2.52-5.28,3.16-8.45,3.5s-6.36.81-9.54,1.16c-.53.06-1.49-.07-1.55-.29-.22-.85.69-.79,1.19-1,4.7-2,9.43-3.87,14.12-5.88a40,40,0,0,0,4-2.22Z" transform="translate(-593.02 -173.02)"/><path class="cls-1" d="M819.11,611.75a3.48,3.48,0,0,1,.25.75,14.54,14.54,0,0,1-1.66,9.14,6.54,6.54,0,0,1-1.16,1.46c-2.07,2-4.45,1.77-6.19-.48a10.87,10.87,0,0,1-1.81-9.49c.8-3.39,2-6.69,3.06-10,.77-2.44,1.6-4.86,2.41-7.29a7.1,7.1,0,0,1,.41-.83l.38,0a5.69,5.69,0,0,1,.12,1.63c-.57,2.56-1.23,5.1-1.84,7.66s-1.26,4.9-1.62,7.39a11.63,11.63,0,0,0,.37,4.09,2.65,2.65,0,0,0,2.24,2.2,2.87,2.87,0,0,0,3.07-1.5,21.26,21.26,0,0,0,1.27-3.37c.16-.46.25-.95.37-1.42Z" transform="translate(-593.02 -173.02)"/><path class="cls-1" d="M879.59,569.25c-.6,1.75-1.66,1.38-2.68.94a11,11,0,0,1-2.28-1.2,3.14,3.14,0,0,1-1-4.53c.34-.64.72-1.27,1-1.93a1.46,1.46,0,0,1,2-.83,9.82,9.82,0,0,1,5,3.35c2.56,3.09,3.87,6.76,4.87,10.57.25.92.44,1.86.73,3.08.63-4,1.14-7.75,1.81-11.44.36-1.93,1-3.81,1.51-5.71a4.65,4.65,0,0,1,.39-.85c1.34-2.53,3.17-2.85,5.25-.9a8.39,8.39,0,0,1,.71.75c1.83,2.12,1.89,3,.46,5.37-.33.56-.61.39-1,.09a18.59,18.59,0,0,0-2.14-1.63c-1.28-.75-2.27-.49-2.74.91a39.94,39.94,0,0,0-1.41,5.83c-.7,4-1.26,7.93-1.93,11.89a3.05,3.05,0,0,1-1.24,2.28c-.81.53-1,.5-1.2-.49a46.18,46.18,0,0,0-4.21-12.34C881,571.43,880.33,570.47,879.59,569.25Z" transform="translate(-593.02 -173.02)"/><path class="cls-1" d="M993.25,634.21c-1.27-.22-2.53-.49-3.81-.63a43.15,43.15,0,0,0-12.58.44,3.92,3.92,0,0,1-1-.09,3.42,3.42,0,0,1,.21-1c1.54-2.61,3.09-5.22,4.68-7.8a1.55,1.55,0,0,1,1-.65,40.79,40.79,0,0,1,16.78,1,10.21,10.21,0,0,1,2.21,1c.21.12.42.67.31.84-2.35,4-4.23,8.29-7.48,11.76-2.3,2.46-5.16,3.09-8.26,3.43s-6.21.78-9.32,1.13c-.51.06-1.46-.07-1.51-.28-.22-.84.68-.77,1.15-1,4.6-1.93,9.23-3.78,13.81-5.75a41.36,41.36,0,0,0,3.9-2.16Z" transform="translate(-593.02 -173.02)"/><path class="cls-1" d="M851.69,574.6a3.48,3.48,0,0,1,.25.75,14.47,14.47,0,0,1-1.66,9.14,6.54,6.54,0,0,1-1.16,1.46c-2.07,2-4.45,1.77-6.19-.48a10.84,10.84,0,0,1-1.8-9.49c.79-3.39,2-6.69,3-10,.77-2.44,1.6-4.87,2.41-7.3a7.1,7.1,0,0,1,.41-.83l.38,0a5.37,5.37,0,0,1,.12,1.63c-.57,2.56-1.23,5.1-1.83,7.66s-1.27,4.9-1.63,7.39a11.63,11.63,0,0,0,.37,4.09,2.65,2.65,0,0,0,2.24,2.2,2.89,2.89,0,0,0,3.08-1.5A21.23,21.23,0,0,0,851,576c.16-.46.25-1,.37-1.42Z" transform="translate(-593.02 -173.02)"/><path class="cls-1" d="M768.15,610.9c-.6,1.75-1.66,1.38-2.69.94a11.8,11.8,0,0,1-2.28-1.2,3.15,3.15,0,0,1-1-4.54c.34-.63.72-1.26,1-1.92a1.46,1.46,0,0,1,2-.83,9.82,9.82,0,0,1,5,3.35,26.76,26.76,0,0,1,4.87,10.56c.25.93.44,1.87.73,3.09.62-4,1.14-7.75,1.81-11.44.35-1.93,1-3.81,1.51-5.71a4.36,4.36,0,0,1,.39-.85c1.34-2.53,3.17-2.85,5.25-.9a10.12,10.12,0,0,1,.71.75c1.83,2.12,1.89,3,.46,5.37-.33.56-.61.39-1,.09a18.7,18.7,0,0,0-2.15-1.63c-1.27-.75-2.26-.49-2.73.91a41.3,41.3,0,0,0-1.42,5.83c-.69,4-1.25,7.93-1.92,11.89a3.05,3.05,0,0,1-1.24,2.28c-.81.53-1,.5-1.21-.49a46.51,46.51,0,0,0-4.2-12.34C769.55,613.08,768.89,612.12,768.15,610.9Z" transform="translate(-593.02 -173.02)"/><path class="cls-1" d="M778.39,574.74a3.36,3.36,0,0,1,.24.74,14.45,14.45,0,0,1-1.66,9.14,6.8,6.8,0,0,1-1.15,1.46c-2.08,2-4.45,1.77-6.19-.48a10.84,10.84,0,0,1-1.81-9.49c.8-3.39,2-6.68,3-10,.78-2.44,1.6-4.87,2.42-7.29a5.84,5.84,0,0,1,.4-.84l.38,0a5.73,5.73,0,0,1,.13,1.63c-.58,2.56-1.24,5.11-1.84,7.66s-1.26,4.9-1.62,7.39a11.43,11.43,0,0,0,.36,4.1,2.63,2.63,0,0,0,2.24,2.19,2.87,2.87,0,0,0,3.08-1.5,21.23,21.23,0,0,0,1.26-3.37c.16-.46.25-.94.38-1.42Z" transform="translate(-593.02 -173.02)"/><path class="cls-1" d="M795.37,693.16a3.08,3.08,0,0,1,.25.74A14.45,14.45,0,0,1,794,703a6.6,6.6,0,0,1-1.16,1.47c-2.07,2-4.44,1.76-6.18-.49a10.79,10.79,0,0,1-1.81-9.48c.8-3.39,2-6.69,3.05-10,.78-2.44,1.6-4.86,2.41-7.29a6.4,6.4,0,0,1,.41-.83l.38.05a5.29,5.29,0,0,1,.12,1.62c-.57,2.57-1.23,5.11-1.83,7.67s-1.26,4.9-1.63,7.39a11.63,11.63,0,0,0,.37,4.09,2.65,2.65,0,0,0,2.24,2.2,2.89,2.89,0,0,0,3.08-1.5,21.6,21.6,0,0,0,1.26-3.37c.16-.47.25-.95.37-1.43Z" transform="translate(-593.02 -173.02)"/><polygon class="cls-2" points="366.98 14.14 470.32 117.49 616.47 117.49 616.47 263.63 719.82 366.98 616.47 470.32 616.47 616.47 470.32 616.47 366.98 719.82 263.63 616.47 117.49 616.47 117.49 470.32 14.14 366.98 117.49 263.63 117.49 117.49 263.63 117.49 366.98 14.14"/><path class="cls-1" d="M1025.86,450.9A93.13,93.13,0,0,1,886.14,328.32a5.91,5.91,0,0,1-.68-.47L876,337.28a118.75,118.75,0,1,0,167.94,0l-9.16-9.16a7.25,7.25,0,0,1-.62.62A93.15,93.15,0,0,1,1025.86,450.9Z" transform="translate(-593.02 -173.02)"/><rect class="cls-1" x="332.14" y="102" width="69.68" height="69.68"/><rect class="cls-1" x="925.16" y="275.02" width="69.68" height="69.68" transform="translate(-530.95 596.56) rotate(-45)"/></svg>