<svg id="Layer_1" data-name="Layer 1" xmlns="http://www.w3.org/2000/svg" viewBox="0 0 543.41 543.41">
    <defs>
        <style>
            .cls-1{fill:#ed1a3d;}.cls-1,.cls-2{stroke:white;stroke-miterlimit:10;stroke-width:4px;}.cls-2{fill:white;}</style>
    </defs>
    <polygon class="cls-1"
        points="271.7 2.83 193.41 81.12 81.43 81.12 81.43 193.1 2.83 271.7 81.43 350.31 81.43 461.37 192.5 461.37 271.7 540.58 350.91 461.37 461.68 461.37 461.68 350.6 540.58 271.7 461.68 192.8 461.68 81.12 350 81.12 271.7 2.83" />
    <polygon class="cls-2"
        points="271.56 56.6 209.05 119.1 119.66 119.1 119.66 208.5 56.91 271.25 119.66 334 119.66 422.66 208.32 422.66 271.56 485.89 334.79 422.66 423.22 422.66 423.22 334.23 486.2 271.25 423.22 208.26 423.22 119.1 334.06 119.1 271.56 56.6" />
</svg>