<svg id="Layer_1" data-name="Layer 1" xmlns="http://www.w3.org/2000/svg" viewBox="0 0 393.17647 214.43483"><defs><style>.cls-1{fill:red;}</style></defs><path class="cls-1" d="M175.88235,1157.78651a61.60565,61.60565,0,0,0,14.327-2.69033q5.47575-1.899,7.72606-4.58938,2.10028-2.84858,3.22544-9.337a97.96037,97.96037,0,0,0,1.12516-16.30021V984.81435a79.37585,79.37585,0,0,0-.97514-13.84727,16.47605,16.47605,0,0,0-3.82552-8.38748,17.16839,17.16839,0,0,0-8.02611-4.58938,68.705,68.705,0,0,0-13.57687-2.13644V949.5236h85.06172q38.70532,0,58.283,14.71767t19.5777,41.93744a55.31509,55.31509,0,0,1-3.90054,21.60174,45.326,45.326,0,0,1-11.10153,15.90457,56.51214,56.51214,0,0,1-17.40239,10.76131,106.74171,106.74171,0,0,1-22.80314,6.17192q.597.79458,3.52548,4.51026,2.92541,3.719,7.276,9.337t9.75135,12.66036q5.40074,7.04232,11.02652,14.322t11.02651,14.322q5.40075,7.04233,9.75135,12.66036t7.201,9.337q2.84727,3.719,3.45047,4.51025a44.26616,44.26616,0,0,0,11.77663,10.91956,36.2562,36.2562,0,0,0,14.92705,4.58938v6.17192H323.6527l-73.21008-99.54207q-4.05056.15825-8.40116.39564-4.35372.23738-8.40115.39563v63.46a64.16712,64.16712,0,0,0,1.35018,14.322q1.3502,5.77959,3.75052,8.46662,5.54765,4.59267,22.65312,6.33018v6.17192H175.88235Zm105.01446-112.20243q24.30336-10.76132,24.30335-39.72188,0-43.67825-52.80727-43.67824-6.45088,0-10.20141.39564a13.98657,13.98657,0,0,0-5.70078,1.58254,4.96257,4.96257,0,0,0-2.40033,3.32334,29.28,29.28,0,0,0-.45006,5.77629v79.602a255.6575,255.6575,0,0,0,28.27889-2.45294Q273.84585,1048.5942,280.89681,1045.58408Z" transform="translate(-175.88235 -949.5236)"/><path class="cls-1" d="M388.53027,1161.364q7.58384-.7983,9.71262-2.661,2.26046-1.86132,2.26185-9.57957v-60.471a30.48821,30.48821,0,0,0-.46568-5.92071,6.84766,6.84766,0,0,0-1.7629-3.55908,7.50721,7.50721,0,0,0-3.62561-1.86269,38.31923,38.31923,0,0,0-6.12028-.83156v-2.661h72.379v19.62481h-3.12666q-1.66313-8.91432-5.18894-11.64184-3.32763-2.65961-15.3007-2.661H418.79906a9.29127,9.29127,0,0,0-2.32837.23284,2.54271,2.54271,0,0,0-1.29724.73177,2.64887,2.64887,0,0,0-.56546,1.36376,14.75694,14.75694,0,0,0-.133,2.19532v30.26878h20.88879q8.64684,0,11.04312-2.59447,2.32836-2.52794,3.85843-10.51092H453.525v31.66581h-3.25972q-1.53146-7.91646-3.925-10.4444-2.39488-2.59446-10.97659-2.59446H414.47494v33.595q0,3.99149,2.46142,4.72326a24.623,24.623,0,0,0,5.18893.5322q3.85706.13443,10.1783.19957a75.99676,75.99676,0,0,0,11.87467-.83156,39.22753,39.22753,0,0,0,8.48192-2.162,19.61762,19.61762,0,0,0,6.1868-5.2222,40.96974,40.96974,0,0,0,5.58808-9.47978h3.925l-6.18681,23.15062h-73.643Z" transform="translate(-175.88235 -949.5236)"/><path class="cls-1" d="M477.78773,1161.364a37.91369,37.91369,0,0,0,6.05375-1.09766,12.04968,12.04968,0,0,0,3.65887-1.56333q2.26045-2.0609,2.26184-9.57957v-60.471q0-7.44939-2.19532-9.51305-2.26183-2.19532-9.77914-2.661v-2.661h36.72076a82.29549,82.29549,0,0,1,23.41673,3.02687,47.289,47.289,0,0,1,17.09687,8.81454,37.01766,37.01766,0,0,1,10.47766,14.23631,49.312,49.312,0,0,1,3.55907,19.29219,46.07993,46.07993,0,0,1-4.19106,19.35871,36.97152,36.97152,0,0,1-5.25546,8.41539,46.5924,46.5924,0,0,1-7.2512,7.08489,34.89631,34.89631,0,0,1-5.38851,3.45929A56.48986,56.48986,0,0,1,541.318,1160.1a62.85632,62.85632,0,0,1-11.70836,2.86056,92.42808,92.42808,0,0,1-13.97021.99787H477.78773Zm34.19282-2.59447a57.77912,57.77912,0,0,0,17.995-2.5612,34.97651,34.97651,0,0,0,13.17191-7.55057,31.58433,31.58433,0,0,0,8.08276-12.34035,48.50521,48.50521,0,0,0,2.72751-16.93056,47.24519,47.24519,0,0,0-2.92709-17.22992,34.05572,34.05572,0,0,0-8.41538-12.673,36.44842,36.44842,0,0,0-13.37149-7.84993,54.8422,54.8422,0,0,0-17.79538-2.69425,27.83406,27.83406,0,0,0-3.65886.19957,6.233,6.233,0,0,0-2.3949.765,3.14319,3.14319,0,0,0-1.33049,1.59659,7.82536,7.82536,0,0,0-.39915,2.76078V1153.381a7.87194,7.87194,0,0,0,.39915,2.72752,3.29859,3.29859,0,0,0,1.33049,1.66312,6.06565,6.06565,0,0,0,2.528.7983A33.78594,33.78594,0,0,0,511.98055,1158.7695Z" transform="translate(-175.88235 -949.5236)"/><path class="cls-1" d="M345.48543,1119.08589q7.8596-.82164,10.186-3.37788,2.32514-2.55432,2.32644-13.42022v-82.98626q0-10.31622-2.32644-13.14634-2.32644-3.0127-10.186-3.56046V998.943h38.22908v3.65177q-7.73385.54775-10.186,3.56046-2.32644,2.83012-2.32644,13.14634v82.98626q0,10.592,2.32644,13.42022,2.51376,2.55624,10.186,3.37788v3.56047H345.48543Z" transform="translate(-175.88235 -949.5236)"/><path class="cls-1" d="M475.47089,1043.48044q8.10024-.97727,10.04162-3.07141,2.00833-2.23375,2.00833-11.448V967.18379a35.229,35.229,0,0,0-.43514-6.14282,6.59759,6.59759,0,0,0-5.42248-5.7589,37.90512,37.90512,0,0,0-6.19233-.87256v-2.79219h38.15817v2.79219a37.06315,37.06315,0,0,0-6.15886.87256,7.67592,7.67592,0,0,0-3.68193,1.95454,7.15911,7.15911,0,0,0-1.80749,3.73455,33.24551,33.24551,0,0,0-.46861,6.21263V994.8963H542.9506V967.18379q0-7.60726-2.20916-9.91228-2.2761-2.3719-9.84079-2.862v-2.79219h38.15817v2.79219a40.90132,40.90132,0,0,0-6.12539.83766,6.5197,6.5197,0,0,0-5.456,5.65419,33.71729,33.71729,0,0,0-.46861,6.28243v63.45257a34.19314,34.19314,0,0,0,.46861,6.35223,7.08592,7.08592,0,0,0,1.774,3.69966,7.41094,7.41094,0,0,0,3.68193,1.88473,46.30958,46.30958,0,0,0,6.12539.90746v2.72239H530.90065v-2.72239q8.10024-.83766,10.04163-3.07141,2.00832-2.23375,2.00832-11.448v-27.6427H501.51217v29.318q0,7.81813,2.2761,9.98208,2.343,2.23521,9.84079,2.862v2.72239H475.47089Z" transform="translate(-175.88235 -949.5236)"/><path class="cls-1" d="M426.02814,1025.49784a38.32765,38.32765,0,0,1,50.44524-57.50126,3.03869,3.03869,0,0,1,.19418-.27805l-3.88139-3.8814a48.86956,48.86956,0,1,0,0,69.112l3.77048-3.77042a2.91776,2.91776,0,0,1-.25566-.2554A38.332,38.332,0,0,1,426.02814,1025.49784Z" transform="translate(-175.88235 -949.5236)"/><rect class="cls-1" x="176.41096" y="5.09759" width="24.61332" height="24.61332"/><rect class="cls-1" x="352.29331" y="954.62118" width="24.61332" height="24.61332" transform="translate(-752.81473 -408.50588) rotate(-45)"/></svg>