<svg xmlns="http://www.w3.org/2000/svg" viewBox="0 0 467.93191 380.5139">
    <defs>
        <style>.cls-1{fill:red;}</style>
    </defs>
    <g id="H">
        <path class="cls-1"
            d="M628.72656,1136.76347m-4.04792-9.138-1.83089,22.63147H560.88341v-6.66134a66.49024,66.49024,0,0,0,15.463-2.90366q5.91-2.04964,8.33872-4.9533,2.26683-3.07447,3.48121-10.07741a105.72856,105.72856,0,0,0,1.21438-17.59277V956.9073a85.67013,85.67013,0,0,0-1.05246-14.94531,17.78269,17.78269,0,0,0-4.12888-9.05259,18.52986,18.52986,0,0,0-8.66255-4.9533,74.15345,74.15345,0,0,0-14.65347-2.30585v-6.83214h91.80684q41.77454,0,62.90469,15.88473t21.13014,45.26295q0,13.32267-4.20983,23.31468a48.92024,48.92024,0,0,1-11.98185,17.16576,60.99348,60.99348,0,0,1-18.78235,11.61465,115.20637,115.20637,0,0,1-24.61136,6.66134q.6443.85756,3.80505,4.8679,3.15737,4.01388,7.853,10.07741t10.5246,13.66429q5.829,7.60075,11.90088,15.45772t11.90089,15.45772q5.829,7.60077,10.52459,13.66429t7.772,10.07741q3.07305,4.01388,3.72409,4.8679a47.77626,47.77626,0,0,0,12.71047,11.78545,39.13119,39.13119,0,0,0,16.11072,4.9533v6.66134H720.37148L641.35607,1042.8215q-4.37175.1708-9.06734.427-4.699.2562-9.06734.427v68.49223m51.0038-89.67187q26.23052-11.61465,26.23052-42.8717,0-47.14179-56.99472-47.14179-6.96243,0-11.01034.427a15.09561,15.09561,0,0,0-6.15284,1.708,5.35607,5.35607,0,0,0-2.59067,3.58687,31.60119,31.60119,0,0,0-.48575,6.23433v85.9142a275.93039,275.93039,0,0,0,30.52132-2.64745Q666.6151,1025.74469,674.22519,1022.49588Z"
            transform="translate(-306.03405 -769.74305)" />
        <path class="cls-1"
            d="M519.805,1089.90809q8.30388-1.32243,10.76184-5.43664,2.45657-4.11116,2.458-21.59962v-133.565q0-16.60378-2.458-21.15881-2.45794-4.84888-10.76184-5.73051v-5.87745h40.39013v5.87745q-8.171.88161-10.76185,5.73051-2.45794,4.555-2.45795,21.15881v133.565q0,17.04767,2.45795,21.59962,2.65587,4.11422,10.76185,5.43664v5.73051H519.805Z"
            transform="translate(-306.03405 -769.74305)" />
        <path class="cls-1"
            d="M576.04858,835.8019a49.99821,49.99821,0,0,1-75.01008-65.80555,3.95854,3.95854,0,0,1-.36271-.2533l-5.06326,5.06326a63.75006,63.75006,0,1,0,90.15624,0l-4.91849-4.91858a3.80778,3.80778,0,0,1-.33316.33352A50.004,50.004,0,0,1,576.04858,835.8019Z"
            transform="translate(-306.03405 -769.74305)" />
        <rect class="cls-1" x="218.60267" y="17.44165" width="32.10794" height="32.10794" />
        <rect class="cls-1" x="524.63671" y="787.18469" width="32.10794" height="32.10794"
            transform="translate(-715.64492 -152.15384) rotate(-45)" />
        <path class="cls-1"
            d="M456.77861,1112.16775v-68.49223q-4.37175-.16725-9.06734-.427-4.69559-.2562-9.06734-.427L359.62852,1150.257H306.03405v-6.66134a39.13119,39.13119,0,0,0,16.11072-4.9533,47.77626,47.77626,0,0,0,12.71047-11.78545q.64767-.854,3.72409-4.8679,3.07642-4.01032,7.772-10.07741,4.699-6.06,10.52459-13.66429,5.829-7.5972,11.90089-15.45772,6.07188-7.8534,11.90088-15.45772,5.829-7.5972,10.5246-13.66429,4.699-6.06,7.853-10.07741,3.15738-4.01032,3.80505-4.8679a115.20637,115.20637,0,0,1-24.61136-6.66134,60.99348,60.99348,0,0,1-18.78235-11.61465,48.92024,48.92024,0,0,1-11.98185-17.16576q-4.20983-9.992-4.20983-23.31468,0-29.37466,21.13014-45.26295,21.13016-15.88473,62.90469-15.88473h91.80684v6.83214a74.15345,74.15345,0,0,0-14.65347,2.30585,18.52986,18.52986,0,0,0-8.66255,4.9533,17.78269,17.78269,0,0,0-4.12888,9.05259,85.67013,85.67013,0,0,0-1.05246,14.94531v151.16117a105.72856,105.72856,0,0,0,1.21438,17.59277q1.21437,7.0065,3.48121,10.07741,2.42875,2.90721,8.33872,4.9533a66.49024,66.49024,0,0,0,15.463,2.90366v6.66134H456.763m-5.48956-13.49348-25.01615-109.05808a275.93039,275.93039,0,0,0,30.52132,2.64745v-85.9142a31.60119,31.60119,0,0,0-.48575-6.23433,5.35607,5.35607,0,0,0-2.59067-3.58687,15.09561,15.09561,0,0,0-6.15284-1.708q-4.04454-.42345-11.01034-.427-56.99135,0-56.99472,47.14179,0,31.25706,26.23052,42.8717Q413.38829,1025.74115,426.25729,1027.70539Z"
            transform="translate(-306.03405 -769.74305)" />
        <rect class="cls-1" x="150.74457" y="260.60979" width="166.44277" height="13.32268" />
        <rect class="cls-1" x="213.08255" y="149.07506" width="41.76681" height="6.83214" />
    </g>
</svg>