<svg id="Layer_3" data-name="Layer 3" xmlns="http://www.w3.org/2000/svg"
    viewBox="0 0 237.92772 173.04594">
    <defs>
        <style>.cls-1{fill:red;}</style>
    </defs>
    <rect class="cls-1" x="75.72239" y="112.78686" width="86.48294" height="3.1086" />
    <path class="cls-1"
        d="M488.47144,388.09826v.8921a18.88058,18.88058,0,0,0-8.92728,1.94164,6.73342,6.73342,0,0,0-3.66655,6.45464v58.669a6.79189,6.79189,0,0,0,3.90568,6.48087,18.62517,18.62517,0,0,0,8.68815,2.02036v.83962H451.2479v-.83962a18.5363,18.5363,0,0,0,8.80771-1.96788,6.82035,6.82035,0,0,0,3.70641-6.53335v-58.669q0-4.82785-3.70641-6.61207a20.13619,20.13619,0,0,0-8.80771-1.78421v-.8921Z"
        transform="translate(-350.89581 -315.91899)" />
    <path class="cls-1"
        d="M490.06559,373.22923h-1.59415v-1.67386h40.651q9.80406,0,16.61907,3.0289a27.96917,27.96917,0,0,1,10.60114,7.6918,29.8394,29.8394,0,0,1,5.42013,9.84391,33.83562,33.83562,0,0,1,1.634,10.20259,29.17254,29.17254,0,0,1-2.67021,12.23515,26.36218,26.36218,0,0,1-8.2099,10.083,31.859,31.859,0,0,1-13.8293,5.739v.31883q10.52142,5.10131,19.44869,20.24578l10.60114,17.93425q7.17371,12.03587,11.51777,15.22418a17.3159,17.3159,0,0,0,8.56859,3.58685v1.27533H567.46184q-1.35669-1.75191-2.55064-3.38758-1.19562-1.63234-2.55065-3.46729-.79709-1.19562-2.35138-3.6267a28.7642,28.7642,0,0,0-1.87314-2.74992l-14.02856-23.195a58.82473,58.82473,0,0,0-8.6483-11.51777,33.15364,33.15364,0,0,0-8.24975-6.33677,24.03794,24.03794,0,0,0-6.89473-2.39123,47.48486,47.48486,0,0,0-7.21355-.47825v42.96249q0,12.51412,12.75324,12.91266v1.27533H488.47144V487.6896a17.823,17.823,0,0,0,6.2172-1.31517,9.937,9.937,0,0,0,4.50349-3.98539,14.09153,14.09153,0,0,0,1.79343-7.6121V385.98248q0-7.01262-3.42744-9.88377A11.42507,11.42507,0,0,0,490.06559,373.22923Zm23.03555,55.47662h6.69545q10.52143,0,17.25674-3.0289a19.87213,19.87213,0,0,0,9.7642-8.64829,28.65812,28.65812,0,0,0,3.0289-13.74959,34.20153,34.20153,0,0,0-2.71007-13.27135,24.61889,24.61889,0,0,0-9.20625-10.92q-6.49784-4.42378-17.49586-4.42379a31.00447,31.00447,0,0,0-7.33311.71737Z"
        transform="translate(-350.89581 -315.91899)" />
    <path class="cls-1"
        d="M442.16122,376.09871q-3.42578,2.86949-3.42744,9.88377v88.79446a14.09153,14.09153,0,0,0,1.79343,7.6121,9.93694,9.93694,0,0,0,4.50349,3.98539,17.823,17.823,0,0,0,6.2172,1.31517v1.27533H413.865V487.6896q12.75325-.39853,12.75325-12.91266V431.81445a47.48486,47.48486,0,0,0-7.21355.47825,24.03794,24.03794,0,0,0-6.89473,2.39123,33.15346,33.15346,0,0,0-8.24975,6.33677,58.82473,58.82473,0,0,0-8.6483,11.51777l-14.02857,23.195a28.76724,28.76724,0,0,0-1.87313,2.74992q-1.5543,2.43275-2.35138,3.6267-1.355,1.83494-2.55065,3.46729-1.19562,1.634-2.55065,3.38758H350.89581V487.6896a17.3159,17.3159,0,0,0,8.56859-3.58685q4.34573-3.18664,11.51777-15.22418l10.60113-17.93425q8.92728-15.14281,19.4487-20.24578v-.31883a31.859,31.859,0,0,1-13.8293-5.739,26.36218,26.36218,0,0,1-8.2099-10.083,29.17254,29.17254,0,0,1-2.67021-12.23515,33.83562,33.83562,0,0,1,1.634-10.20259,29.8394,29.8394,0,0,1,5.42013-9.84391,27.96921,27.96921,0,0,1,10.60113-7.6918q6.815-3.02891,16.61908-3.0289h40.651v1.67386h-1.59415A11.42507,11.42507,0,0,0,442.16122,376.09871Zm-15.543-.71737a31.00451,31.00451,0,0,0-7.33312-.71737q-10.99966,0-17.49585,4.42379a24.61889,24.61889,0,0,0-9.20625,10.92,34.20135,34.20135,0,0,0-2.71007,13.27135,28.658,28.658,0,0,0,3.0289,13.74959,19.87213,19.87213,0,0,0,9.7642,8.64829q6.737,3.03055,17.25674,3.0289h6.69545Z"
        transform="translate(-350.89581 -315.91899)" />
    <path class="cls-1"
        d="M486.81573,347.59785a23.9769,23.9769,0,0,1-35.97147-31.55739,1.90066,1.90066,0,0,1-.17394-.12147l-2.42811,2.42811a30.57167,30.57167,0,1,0,43.23489,0l-2.35869-2.35873a1.82424,1.82424,0,0,1-.15977.15994A23.97966,23.97966,0,0,1,486.81573,347.59785Z"
        transform="translate(-350.89581 -315.91899)" />
    <rect class="cls-1" x="109.99439" y="5.29646" width="17.93895" height="17.93895" />
    <rect class="cls-1" x="460.89019" y="321.21545" width="17.93895" height="17.93895"
        transform="translate(-446.7531 113.0309) rotate(-45)" />
</svg>