<svg id="Layer_1" data-name="Layer 1" xmlns="http://www.w3.org/2000/svg" viewBox="0 0 688.45 633.14"><defs><style>.cls-1{fill:#ffd400;}</style></defs><path class="cls-1" d="M794.07,860a29.84,29.84,0,0,1-19.71-8.62C762.52,840,751.14,828,739.64,816.23c-2.36-2.43-4.42-5.17-6.61-7.76l-1.22.71c.94,2.23,1.87,4.47,3.08,7.33l-29.83-4-.24,1,9.69,3,.24,1.43-38.7,9.63c.06.31.11.63.17.94l10.28-.48c-3.19,2.5-5.23,4.33-7.49,5.83-3.46,2.31-7.3,4.11-10.53,6.68-1.81,1.43-6.66,1.57-4,6.23.2.33-1.21,2-2.16,2.51-4.14,2-8.22,4.63-12.63,5.53-10.27,2.07-19.89,5.2-28.39,11.58-4.86,3.65-10.42,4.19-16.12,1.81-3-1.26-6.56-7.89-5.45-10.83a4,4,0,0,1,3.31-1.88,53.46,53.46,0,0,1,7.9,2.8c2.2.85,4.38,1.76,6.56,2.65l.85-1.49-8.56-6.19c5-2.72,9.18-6.19,13.94-7.3s9.86.24,14.82.5c.07-.48.14-1,.2-1.46l-11.31-3.24c5.4-4.27,9.65-9.31,15-11.43,5.09-2,11.38-.92,17.17-2.3l-13.29-3c6.3-5.53,11.52-11,17.64-15.07,2.45-1.64,6.94-.77,10.37-.23,3.74.58,7.33,2.54,11.65.05l-14.65-4.72c-.2-.48-.39-1-.59-1.46,5.54-3.43,10.91-7.16,16.64-10.2,6.85-3.64,12,3.29,18.15,4.11l.71-1.15-9.16-7.56c7.18-2.86,14.35-4.88,21.82-4.15,2.36.23,4.71,2.78,6.62,4.7s3.31,4.43,4.94,6.68l1.34-.7c-1.49-3.47-3-6.94-4.62-10.8,8.74.47,16.09,3.77,21.8,10.23a61.18,61.18,0,0,1,8,11.39C767.44,825.42,776.68,845.32,794.07,860Z" transform="translate(-195.77 -571.46)"/><path class="cls-1" d="M285,861.2c17-14.55,26.5-34.11,36.58-53.26,5.51-10.46,12.63-19.28,25-22a26.49,26.49,0,0,1,3.44-.55,7.71,7.71,0,0,1,1.82.27l-4.47,10.41,1.24.74c1.41-1.88,3-3.66,4.19-5.66,2.81-4.6,6.6-6.94,12.1-5.83L383,789l-10.18,8c.25.48.5,1,.76,1.44a40.71,40.71,0,0,0,6.29-2.64c5.82-3.61,11.32-3.15,16.79.66,3.92,2.72,7.88,5.38,12.79,8.72l-15.53,5.17,0,1.26c3.25-.29,6.8.14,9.7-1,6.44-2.59,11.5-1.48,16.28,3.42,3.79,3.9,8,7.36,13,11.84l-13.83,2.76-.17,1.08c3.23.16,6.6,1,9.64.34,5.16-1.13,9.15.36,12.85,3.62,3.09,2.72,6.14,5.49,9.94,8.89l-10.91,3.23c.06.49.13,1,.19,1.47,5-.27,10.15-1.6,14.79-.53,4.83,1.11,9.13,4.52,14.19,7.21L461,860.13c6.78,1.79,11.44-6.7,18.37-3.2.76,9.71-5.56,15.38-14.78,13a23.54,23.54,0,0,1-8.07-3.79c-7.26-5.43-15.46-8.12-24.23-10-5.09-1.07-9.94-3.51-14.69-5.79-1-.5-1.09-3-1.75-4.45a6,6,0,0,0-1.77-2.53c-4-2.7-8.13-5.2-12.14-7.88a29.2,29.2,0,0,1-7.47-6.66l8.7.49.16-1.1-38.09-9.43c.06-.55.13-1.1.19-1.65l8.15-2.61-.21-1.1L344.71,817l2.87-7.24C327.89,828.7,313.18,853,285,861.2Z" transform="translate(-195.77 -571.46)"/><path class="cls-1" d="M461.43,741.82c-9.66.7-18.09,1.37-24.17-6.87L436,736.18l15.91,21H433.58c-.29,2.48-.55,4.7-.89,7.65-11.57-2.83-22.85-4.91-33.61-8.54-5-1.69-9.1-6.29-13.38-9.85-.79-.67-.46-2.69-.65-4.08,1.56-.17,3.3-.86,4.64-.4,8.9,3,10.2,2.49,14.55-6.13a66.79,66.79,0,0,1,4.25-6.29l-23.55,9.38c1.23-6.25,4.63-9.39,8.8-10.88a227.37,227.37,0,0,1,24.8-7.31c9-2.09,18.23-3.38,28.9-5.3-3.12,3.32-5.3,5.65-7.82,8.32,7.55,4.66,16,4.67,24.34,6.13L457.38,731C458.63,734.32,459.85,737.58,461.43,741.82Z" transform="translate(-195.77 -571.46)"/><path class="cls-1" d="M693.75,738.48l-22.25-8.87c2.63,4.52,4.16,9.22,7.37,11.91,2.13,1.79,6.68.81,10.15.81a39.72,39.72,0,0,0,5.79-.81l1.28,1.86c-2.27,2.79-4,6.65-6.91,8.16a130.55,130.55,0,0,1-22,8.86c-6.29,1.9-13,2.41-20.12,3.63-.27-1.94-.58-4.13-.94-6.73H627.87c6-8,11.16-14.94,16.35-21.87L643,734.17c-6.12,9.05-14.89,8.45-24.8,7.63l4.3-10.64-7-1.45,24.68-4.65c.11-.67.23-1.35.34-2l-7.86-5.74,1.23-1.88c2.91.64,5.81,1.34,8.73,1.9,10.62,2,21.34,3.65,31.82,6.21,5.22,1.27,10.22,3.93,14.92,6.64,2.36,1.36,3.83,4.26,5.71,6.46Z" transform="translate(-195.77 -571.46)"/><path class="cls-1" d="M276.07,934.63c4.4-8.14,8.7-16.35,13.24-24.42a259.35,259.35,0,0,0,23.24-56.7,14.52,14.52,0,0,1,2.87-5.64c7-7.78,14.3-15.34,21.38-23.08,1.94-2.13,3.75-3.25,6.62-.84-2.95,8.51-5.34,17.39-9.2,25.58-1.72,3.63-6.41,5.87-9.79,8.77h7c-1.31,3.83-2.39,7.4-3.74,10.88-2.59,6.67-5.46,13.23-8,19.93s-6.32,11.95-14.54,12.71l.6,1.16,6.2,1C303.71,918.58,291.71,928.44,276.07,934.63Z" transform="translate(-195.77 -571.46)"/><path class="cls-1" d="M803.94,935.26C787.82,928.07,776,918,767.38,903.63l6.28-1.31c-.23-.48-.3-.89-.47-.93-7.11-1.69-11.24-6.25-13.7-13.06-3.65-10.1-7.83-20-12.08-30.74l7.29.51c0-.6.14-1.11,0-1.15-7.74-3.34-11.27-9.7-13.29-17.51-1.41-5.45-3.66-10.67-5.56-16.08,2.72-2.29,4.64-1.51,6.77.85,7,7.76,14.3,15.33,21.38,23.06a10.32,10.32,0,0,1,2.44,4.23c7,28.26,20.66,53.61,34.8,78.73C802,931.48,802.63,932.77,803.94,935.26Z" transform="translate(-195.77 -571.46)"/><path class="cls-1" d="M245.79,1044.85a18.08,18.08,0,0,1,.32-3.5c3-9.87,4.95-20.19,9.23-29.46a423.47,423.47,0,0,0,23.26-63.65,15.21,15.21,0,0,1,8.28-10.35c5.71-2.92,10.86-6.95,17-11-1.21,4.92-2.06,9.28-3.38,13.49-3.39,10.78-7.3,21.42-10.42,32.27-2.88,10-8.87,16.93-18.07,21.92h7C279.55,1002,255.53,1038.51,245.79,1044.85Z" transform="translate(-195.77 -571.46)"/><path class="cls-1" d="M833.16,1043.86c-14.69-14.09-25.07-31-34.17-49.61h8.27c-.6-.87-.81-1.52-1.23-1.73-8.75-4.33-13.94-11.34-16.75-20.64-4.51-14.92-9.51-29.69-14.29-44.52l1.17-.39c7.12,4.44,14.29,8.81,21.31,13.42,1.07.7,1.6,2.46,2.06,3.84,1.78,5.37,3.23,10.86,5.18,16.16,5.33,14.51,10.48,29.1,16.4,43.37C826.48,1016.7,831.19,1029.75,833.16,1043.86Z" transform="translate(-195.77 -571.46)"/><path class="cls-1" d="M241.1,1002.49l7.12.33c-13.53,25.71-30.07,48.46-51.34,67.63l-1.11-.64c4.55-8.77,8.83-17.68,13.68-26.27,12.79-22.62,26.28-44.86,35.56-69.27,2.07-5.45,4.9-10.7,6.22-16.32,2.25-9.63,8.8-15.19,17.93-20.8-2.73,4.26-4.72,7.34-7.11,11.06l7.87-1.78a57.64,57.64,0,0,1-1.38,6.26c-3.56,10.21-7.41,20.33-10.79,30.6C254.89,992,249.11,997.71,241.1,1002.49Z" transform="translate(-195.77 -571.46)"/><path class="cls-1" d="M831.78,1002.42l6.16-.47c-.13-.7-.09-1.17-.25-1.25-8.59-4.17-13.89-11-16.88-20-3.31-9.93-6.86-19.79-10.24-29.71a46.23,46.23,0,0,1-1.11-5.23l7.84,1.81-6.41-9.91c6.73,4.44,13.34,8.12,16.28,16.82A387.48,387.48,0,0,0,863,1030.71c7.45,12.35,13.85,25.33,21.27,39C871.52,1063.55,838.67,1020.89,831.78,1002.42Z" transform="translate(-195.77 -571.46)"/><path class="cls-1" d="M752.22,921.91l-14.79-23,6.58-1.79c-13.13-3.43-13.87-15-18.62-23.63-2.62-4.75-4.42-10-6.81-15.44h6c0-.6,0-1.12-.1-1.16-7.61-2.7-10.64-9-12.84-16-1.05-3.33-2.45-6.55-3.65-9.83-2-5.55,2-10.23,8.09-9.55,6.93.77,11.3,3.62,14,10.82,10.72,28.31,17.88,57.5,23.56,87.13a10.34,10.34,0,0,1,0,1.93Z" transform="translate(-195.77 -571.46)"/><path class="cls-1" d="M336.81,898.21l5.3.95L327,922.79l-1.69-.77c1.77-8.59,3.35-17.21,5.34-25.75,5.33-22.88,11.09-45.64,20.63-67.22,3.08-7,13.31-9.37,19.13-4.43,1.15,1,2.08,3.52,1.64,4.85-2.22,6.8-4.32,13.77-7.69,20-2,3.62-6.23,6-9.4,8.89l5.87.45c-3.78,8.42-7.45,16.52-11.05,24.64-2.72,6.14-5.27,12.39-13.41,13.56C336.5,897.43,336.66,897.82,336.81,898.21Z" transform="translate(-195.77 -571.46)"/><path class="cls-1" d="M696.1,872.2l5.43-1.42c-13.72-4.2-13.75-18-19.92-27.32,2.34-3.3,4.17-7.22,7.18-9.73,2.33-2,6.13-2.16,10-3.38,11.44,27.94,22,55.91,26.52,86.4-8.78-5.41-15.3-15.28-12.49-18.31C706.36,894.51,699.41,883.69,696.1,872.2Z" transform="translate(-195.77 -571.46)"/><path class="cls-1" d="M353.94,916.67c1.65-8,2.6-16.31,5.1-24.08,6-18.86,12.85-37.47,19.24-56.21,1.46-4.29,3.32-5.34,8.05-3.83,4.88,1.56,8,4.55,10.64,8.31a5.21,5.21,0,0,1,.15,4.38c-2.71,6.09-5.15,12.42-8.81,17.9-2.31,3.46-6.6,5.58-10.15,8.42l4.87,1.29c-1.74,9.67-10.56,23.15-16.52,25.72.43,1.41,1.63,3.34,1.14,4-3.77,5.14-7.87,10-11.87,15Z" transform="translate(-195.77 -571.46)"/><path class="cls-1" d="M343.49,1094.76c-.77-5.07-1.41-9.25-2.14-14l23.77-2.62c-10.34-3.63-18.95-7.21-27.88-9.55-4.57-1.2-5.5-2.9-4.1-6.81.71-2,1.57-4,2.53-6.35,10,6.17,18.12,14.88,29.74,16.73.32-.55.65-1.09,1-1.63-2.71-1.73-5.46-3.39-8.11-5.21-4.51-3.09-9.46-5.79-10.07-12.22-.09-1-1.73-1.78-2.69-2.63-1.15-1-2.35-2-3.63-3.11,7.66-5.87,11-5.18,14.85,2.57.29.59.58,1.2.86,1.8,7.17,15.11,14.48,18.38,30.52,13.67,2.23-.66,4.47-1.74,6.71-1.73,1.49,0,3,1.58,4.47,2.46-1,1.34-1.69,3.18-3,3.94-3,1.72-6.33,2.83-9.45,4.35-4.56,2.23-4.77,3.65-1.12,7.31,1.52,1.53,3.29,2.81,4.92,4.23,2,1.76,3.91,3.73,1.05,6.13-2.46,2.08-5.14,5.09-8.62,1.83a28,28,0,0,1-4.79-6.35c-2.67-4.61-6.76-6.22-11.46-4.68-6.95,2.27-14.63,3.33-19.45,10C346.64,1093.89,344.87,1094.13,343.49,1094.76Z" transform="translate(-195.77 -571.46)"/><path class="cls-1" d="M737.57,1048c-7.19,8.89-12.14,19.52-23.59,23.92,12.34-.55,20.34-9.29,30.27-15.44.87,2,1.76,3.72,2.38,5.54,1.94,5.65,1.48,6.27-4.5,7.48a41.27,41.27,0,0,0-5.68,1.83c-6.65,2.41-13.29,4.85-21.19,7.74l23.42,2.72c-.37,3.64-.66,7.17-1.12,10.67-.14,1-.79,2.73-1.22,2.73-1.2,0-2.94-.34-3.54-1.19-4.48-6.47-11.83-7.58-18.42-9.82-6.15-2.09-9.09-.63-12.74,4.66-.95,1.37-1.84,2.79-2.86,4.1-3.4,4.36-8.69,4.06-11.19-.84-.52-1,.12-3.21,1-4.21,1.94-2.24,4.44-4,6.56-6.11,2.31-2.29,2.13-4.42-1-5.89-3.29-1.56-6.75-2.8-9.88-4.61-1.48-.85-2.37-2.71-3.53-4.11,1.8-.84,3.71-2.56,5.38-2.35,4.42.55,8.73,2,13.1,3,9.09,2.08,15.53-1.76,20.16-9.3,1.56-2.54,2.73-5.32,4.09-8C727.22,1043.18,730.86,1042.52,737.57,1048Z" transform="translate(-195.77 -571.46)"/><path class="cls-1" d="M750.93,932.75l8.63,6.44,1.65-.71q-4.58-23.22-9.14-46.44l.67-.31c3.15,7.37,7.73,14.48,9.22,22.17a349.46,349.46,0,0,0,26,80c4,8.61,7.43,17.44,11.07,26.2.67,1.62,1.07,3.36,1.59,5l-1.51.86-29.49-44.09,9.51-.84c-1.82-1.13-2.75-1.73-3.7-2.3-6.29-3.75-11.43-8.41-14.07-15.57-3.73-10.08-7.8-20-11.73-30Z" transform="translate(-195.77 -571.46)"/><path class="cls-1" d="M327.42,892c-3.2,16.24-6.25,31.68-9.3,47.11l1.31.78,9.52-6.5a47.85,47.85,0,0,1-1.18,4.88c-2.64,7.19-5.19,14.41-8.08,21.5-4.68,11.5-4.77,11.46-19.06,22.17l8.15.4a287.27,287.27,0,0,1-29.08,43.85l-1.29-.64c2.49-6.28,4.71-12.69,7.52-18.82,11.49-25,22.53-50.2,28.14-77.26C316.76,916.47,320.3,904.05,327.42,892Z" transform="translate(-195.77 -571.46)"/><path class="cls-1" d="M354.37,894.68l-7.29,37.39,1.48,1,13.38-10.26,1.13.45c-2.89,8.31-5.92,16.58-8.62,25-2.89,9-9.61,14.39-18.61,19.56l8.61.89-23,27.87-1.39-.76c1.67-5.11,3.1-10.32,5.06-15.32a359.71,359.71,0,0,0,19.26-66c1.31-7,6.08-13.43,9.27-20.12Z" transform="translate(-195.77 -571.46)"/><path class="cls-1" d="M717.19,922l13.53,10.41,1.54-.84L725,893.82l1.37-.51c3.32,8.73,7.82,17.22,9.71,26.26a355.34,355.34,0,0,0,16.73,56.36c2.33,6,4.18,12.17,6.26,18.27l-1.65,1L734.7,967.84l7.58-.46C723.49,958,722.62,938.77,717.19,922Z" transform="translate(-195.77 -571.46)"/><path class="cls-1" d="M598.61,1194.5c-4.85-2.61-9.48-4.4-13.3-7.27-14-10.57-22.12-25.5-29.27-41-2.43-5.27-4.06-10.92-6.44-16.22-2.3-5.12-1.07-9.53,1.15-13.25,4.66,4.15,9.32,8.22,13.88,12.4a6.37,6.37,0,0,1,1.35,2.61c7.1,20.84,18,39.64,30.75,57.45a33.27,33.27,0,0,1,1.86,3C598.72,1192.38,598.61,1192.76,598.61,1194.5Z" transform="translate(-195.77 -571.46)"/><path class="cls-1" d="M528.83,1117c2.32,3.69,3.21,8.1,1.2,13.55-6.08,16.49-13.38,32.25-24.46,46-7.56,9.43-15.87,15.12-24.95,16.73,1.16-1.89,2-3.37,2.92-4.73C496,1171,506.73,1152.48,513.67,1132a7.21,7.21,0,0,1,1.65-3C519.76,1124.89,524.31,1121,528.83,1117Z" transform="translate(-195.77 -571.46)"/><path class="cls-1" d="M613.45,1181.55a35.78,35.78,0,0,1-19.38-8.8c-11-9.42-17.12-21.89-21.74-35.22-1-2.9-3.85-6.08.11-9.28.67-.53.06-2.86-.21-4.31-.84-4.52-1.8-9-2.76-13.77,6.38,1.75,9.54,5.29,11.48,11.32a181.64,181.64,0,0,0,29.46,55.71C611.3,1178.35,612.08,1179.58,613.45,1181.55Z" transform="translate(-195.77 -571.46)"/><path class="cls-1" d="M466.84,1181c1-1.46,1.71-2.7,2.57-3.82a180.24,180.24,0,0,0,28.47-53c2.2-6.61,4.67-12.25,12.39-14.19-1,5.1-2.13,10.31-2.92,15.57-.2,1.31.76,2.77,1.12,4.18.25,1,.77,2.14.5,3-4.47,14.47-10.56,28.07-21.8,38.73A33.4,33.4,0,0,1,466.84,1181Z" transform="translate(-195.77 -571.46)"/><path class="cls-1" d="M405.83,848.65l14.66,7.63c-2.33,11.79-7.87,17.84-20.54,21.87l8.27,3c-5.64,11.13-12.74,21-23.84,27.78C383,898.37,396.14,861.46,405.83,848.65Z" transform="translate(-195.77 -571.46)"/><path class="cls-1" d="M671,880.45l8.41-2.69c-13.2-4.94-17.45-9.56-20.69-22l14.41-7.53c8.13,7.43,21.56,43.2,22.35,60.31C684,901.7,677,891.78,671,880.45Z" transform="translate(-195.77 -571.46)"/><path class="cls-1" d="M498.87,1096.63c-2.43,4.82-4.85,9.64-7.41,14.71l5.13,2.73c-3.12,20.28-28.87,49.33-45.61,51.17a18.12,18.12,0,0,1,1.56-2.49c14.78-16.25,25.17-35,32.08-55.81,1.23-3.7,2.54-6.52,6.91-7.35,2.3-.44,4.33-2.33,6.48-3.56Z" transform="translate(-195.77 -571.46)"/><path class="cls-1" d="M582.34,1114.41l6-3c-2.67-5.24-5.19-10.21-8-15.7,4.4,2,8.1,3.53,11.67,5.35a4.91,4.91,0,0,1,1.87,2.73c7.33,22.22,17.83,42.63,33.87,59.91a11.65,11.65,0,0,1,1,2.48C603.61,1156.77,591.82,1137,582.34,1114.41Z" transform="translate(-195.77 -571.46)"/><path class="cls-1" d="M692.74,977.65,675.1,951.7l1-1.24h8c-15.89-7.51-18.21-22.35-21.8-37.41l9.2,3.1c-1.26-8.38-2.4-16-3.73-24.82,4.31,6.18,8,10.91,9.37,17.75,2.8,13.62,7.22,26.9,10.95,40.33,2,7.36,4.09,14.72,6,22.1a38,38,0,0,1,.64,5.25Z" transform="translate(-195.77 -571.46)"/><path class="cls-1" d="M473.75,873.31c-.68,1.79-1.35,3.59-2.1,5.57l5.27,3c-2,4.18-3.92,8.26-6.38,13.47-1-2.72-1.56-4.19-2.33-6.24-7.73,11.1-7.33,24.44-11.69,36.2s-7.64,24.22-12,36.3c-1.83-7.23-4-14.31-2-21.8,3.4-12.18,6.22-24.55,10.37-36.47,3.27-9.35,7.89-18.29,12.58-27,1.13-2.12,4.9-2.84,7.45-4.2Z" transform="translate(-195.77 -571.46)"/><path class="cls-1" d="M395.58,951h9.49l-18.51,27.38-1.87-.75a28.64,28.64,0,0,1,.49-5.43c2.89-10.24,6.1-20.38,8.86-30.65,3.1-11.53,5.5-23.27,8.91-34.71,1.51-5.07,4.77-9.61,7.24-14.38l1.17.47c-1.12,7.66-2.25,15.33-3.51,23.91l9.08-3.26C413.58,928.66,411.09,943.34,395.58,951Z" transform="translate(-195.77 -571.46)"/><path class="cls-1" d="M611,888.67c-.55,1.65-1.1,3.3-2.07,6.24-2.48-5.16-4.44-9.26-6.52-13.6l5.22-2.95-1.8-5.46c3.84-.82,7-.28,8.7,3.46,4.51,10.14,9.36,20.17,13.06,30.61a214.38,214.38,0,0,1,8.93,32.15c1.31,7.1.09,14.67,0,22l-2.36.27q-10.9-36.55-21.8-73.11Z" transform="translate(-195.77 -571.46)"/><path class="cls-1" d="M544.5,1128.44c13.11,24,19,48.53,17.88,76a71.69,71.69,0,0,1-5.66-6A61.56,61.56,0,0,1,545.53,1171c-1.76-11.29-2.76-22.7-3.63-34.09C541.7,1134.34,543.45,1131.66,544.5,1128.44Z" transform="translate(-195.77 -571.46)"/><path class="cls-1" d="M517.27,1204.24c-1-27.17,4.72-51.77,17.81-75.36.95,2.3,2.52,4.42,2.62,6.61a121.74,121.74,0,0,1-9.06,53.17C526.22,1194.47,523,1199.82,517.27,1204.24Z" transform="translate(-195.77 -571.46)"/><path class="cls-1" d="M828.32,939.73c-18.42-9.73-47.1-56.41-50.44-81,4.53,1.95,8.88,3.72,13.11,5.75a4.62,4.62,0,0,1,1.76,2.79c6.49,24.43,18.89,46,32.33,67.09C826,935.7,826.76,937.12,828.32,939.73Z" transform="translate(-195.77 -571.46)"/><path class="cls-1" d="M302.51,858.84c-11.42,31.48-23.82,61-51.3,81.19.89-1.48,1.74-3,2.68-4.46,13.59-21.22,26.08-43,32.74-67.57a5.77,5.77,0,0,1,2.55-3.3C293.17,862.71,297.33,861.08,302.51,858.84Z" transform="translate(-195.77 -571.46)"/><path class="cls-1" d="M368.11,956.49h8.05A85.13,85.13,0,0,1,357.93,981c1.19-15.86,8.31-28.69,12.06-42.47s6.47-27.53,9.64-41.31l1.62.36c-1.43,7.75-2.85,15.5-4.51,24.53l14.62-7.89c-5.34,16.29-5.53,33.74-24,41.27Z" transform="translate(-195.77 -571.46)"/><path class="cls-1" d="M703.13,955.82h8.34c-17.85-8.32-18.06-25.91-23.58-42.34l14.82,8c-1.73-9.05-3.21-16.82-4.69-24.58l.69-.41c1,2.2,2.8,4.31,3.06,6.6,2.39,20.88,9.27,40.49,16.24,60.11a70.79,70.79,0,0,1,3.18,16.2A74.82,74.82,0,0,1,703.13,955.82Z" transform="translate(-195.77 -571.46)"/><path class="cls-1" d="M539.32,1047.14a25.11,25.11,0,0,1,3.49,1.48c4,2.51,8.12,4.82,11.71,7.8a7.74,7.74,0,0,1,2.49,6c-1.36,9.45-15.16,16.5-23.26,11.72a33.52,33.52,0,0,1-10.07-9.19c-3.13-4.43-1.36-7.27,3.5-9.4,3.24-1.41,6-3.9,9-5.94C537.23,1048.85,538.23,1048,539.32,1047.14Z" transform="translate(-195.77 -571.46)"/><path class="cls-1" d="M662.57,969.09l-13.25-21.44,6.8-.64c-13-7.76-14.44-20.93-17.73-34.23l8.08,4.26c.6-6.24,1.13-11.82,1.66-17.35C650.85,902.11,664.44,961.59,662.57,969.09Z" transform="translate(-195.77 -571.46)"/><path class="cls-1" d="M430.12,948.2c-4.78,7.72-9.11,14.69-13.9,22.41-1.56-5.91,11.63-66.86,15-71.1.46,6,.89,11.59,1.4,18.11l8.27-4c-3.38,13.24-4.75,26.58-18.29,34Z" transform="translate(-195.77 -571.46)"/><path class="cls-1" d="M448.84,1060.72c-2.67,5.83-5,10.92-7.35,16a3.67,3.67,0,0,1-1.58,1.81c-9.28,3.85-15.83,10.68-20.65,19.44l-1.57-.32c0-3.15-.48-6.39.11-9.41,1.05-5.33,2.08-10.85,4.35-15.71,3.8-8.12,9.51-14.09,19.89-11.83C444.09,1061.1,446.31,1060.72,448.84,1060.72Z" transform="translate(-195.77 -571.46)"/><path class="cls-1" d="M661.61,1097.77c-5.68-8.43-12.34-15.33-21.74-19.28a3.71,3.71,0,0,1-1.58-1.79c-2.38-5-4.68-10.09-7-15.13,18.28-4.64,25.72,3,30.19,22.84C662.43,1088.65,661.61,1093.3,661.61,1097.77Z" transform="translate(-195.77 -571.46)"/><path class="cls-1" d="M477.68,877l7.49-23c4.45-.5,9.5-1.25,14.57-1.5,1,0,2.68,1.59,3.13,2.8,4.43,11.84-4.52,23.72-17.4,23.1A59,59,0,0,1,477.68,877Z" transform="translate(-195.77 -571.46)"/><path class="cls-1" d="M594.52,854c2.49,7.59,4.89,14.92,7.31,22.32a18.11,18.11,0,0,1-20.47-2.3,16.46,16.46,0,0,1-4.52-18.59c.5-1.25,2.43-2.77,3.66-2.74C585.27,852.78,590,853.49,594.52,854Z" transform="translate(-195.77 -571.46)"/><path class="cls-1" d="M427.67,884.61c0,2.66.69,4.87-.12,6-3.78,5.11-8,9.91-12,14.81l-2.46-1.18c1.89-8,3.17-16.27,5.85-24,2.15-6.2,6.08-11.78,9.07-17.71,1.22-2.41,3.15-3.49,5.12-1.86,2.2,1.82,5.38,4.62,5.21,6.76C437.81,873.73,431.81,881.79,427.67,884.61Z" transform="translate(-195.77 -571.46)"/><path class="cls-1" d="M650.08,886.94l3.43-1.88c-.36-.33-.62-.72-1-.86-8.14-3.28-8.88-11.53-11.6-18.2-.48-1.16,3.24-4.42,5.49-6.07.77-.57,3.62.3,4.42,1.36,8.53,11.14,14.14,27.81,14.56,43.24A43.32,43.32,0,0,1,650.08,886.94Z" transform="translate(-195.77 -571.46)"/><path class="cls-1" d="M576.25,1044.36c5.14,0,10.4-.39,15.58.11,5,.49,12,9.47,11.74,14.45a5,5,0,0,1-2,3.13c-5,3.73-10.59,5.38-16.85,3.58-4.41-1.27-7.63-2.64-6.39-8.8C579.07,1053,577,1048.56,576.25,1044.36Z" transform="translate(-195.77 -571.46)"/><path class="cls-1" d="M502.74,1044.58c-.37,5.29-.57,10.31-1.14,15.28a6,6,0,0,1-2.2,3.86c-6.17,4.13-16.54,3-21.82-2.11a4.5,4.5,0,0,1-1.52-2.42c-.65-6.63,9.15-16.09,16-15.53C496,1044,499.89,1044.33,502.74,1044.58Z" transform="translate(-195.77 -571.46)"/><path class="cls-1" d="M539.7,1128.18c-5.77-5.19-7.91-12-8.81-19.37-1-7.87,4.35-13,8.72-18.52C551.52,1101.54,551.7,1117.49,539.7,1128.18Z" transform="translate(-195.77 -571.46)"/><path class="cls-1" d="M412.9,1043.85a27.78,27.78,0,0,0,20.44.84c1.54-.52,3.53.3,5.32.41,2.81.17,5.86,1,8.39.22,6-1.87,10.54.73,15.3,3.75-2.85,6-7.34,9.33-14.14,8.4-8.16-1.11-16.46-1.91-24.34-4.15-4.42-1.25-8.1-5.13-12.12-7.82Z" transform="translate(-195.77 -571.46)"/><path class="cls-1" d="M616.17,1049.72c5.75-3.23,9.8-5.87,15.83-4.55,5.63,1.23,11.74.31,17.64.33h17.48c-2.34,1.93-4.81,4.66-7.85,6.35-10.29,5.71-21.63,6.77-33,5.1C622.85,1056.44,619.9,1052.49,616.17,1049.72Z" transform="translate(-195.77 -571.46)"/><path class="cls-1" d="M595.85,1009.33c1.68,1.9,3.83,3.55,4.95,5.73a115.24,115.24,0,0,1,6.11,14.12c1,2.9,2.28,6.77-1.48,8.43-3.95,1.73-8.4,2.37-12.69,3.14-.43.08-1.7-2.16-1.87-3.42-1-7.07-4.8-11.83-11-15-1.41-.72-2.47-2.13-3.69-3.23l.91-1.19c3.68,1.19,7.29,2.78,11.07,3.48,6,1.13,7.49-.42,7.17-6.52-.09-1.62-.29-3.23-.44-4.85Z" transform="translate(-195.77 -571.46)"/><path class="cls-1" d="M484.63,1010.27c0,1.12,0,2.25,0,3.37-.2,8.29,1.56,9.66,9.73,7.22,2.68-.8,5.22-2.06,8.93-2.4-.92,1.21-1.58,2.95-2.8,3.53-6.88,3.29-10.9,8.48-11.78,16.11-.1.88-.83,2.47-1.08,2.44-4.14-.58-8.38-1-12.34-2.22-3.06-1-3.68-3.74-3-7,1.65-8.33,4.95-15.66,11.09-21.49Z" transform="translate(-195.77 -571.46)"/><path class="cls-1" d="M456.19,1021.7c-1.31,6.48-2.29,11.82-3.53,17.09a4.32,4.32,0,0,1-2.29,2.64c-11,4.16-23.87-3.73-25.7-15.91,5.62,0,11.22.24,16.78-.11,2.38-.15,4.64-1.7,7-2.31C451.09,1022.43,453.78,1022.12,456.19,1021.7Z" transform="translate(-195.77 -571.46)"/><path class="cls-1" d="M623.56,1021.66c2.45.46,5.1,1,7.77,1.45,6.31,1,12.62,2,18.95,2.81,1.56.21,3.21-.32,5-.53-2.64,12.61-14,19.72-25.48,16.11a5.09,5.09,0,0,1-2.85-3.19C625.67,1033.2,624.8,1028,623.56,1021.66Z" transform="translate(-195.77 -571.46)"/><path class="cls-1" d="M587.14,979.19c3.91.78,7.65,1.43,11.33,2.34a5,5,0,0,1,2.46,2c4.21,5.93,4.5,12.47,2.15,19.05-.52,1.45-3,3.28-4.38,3.13a25.73,25.73,0,0,1-9.37-2.91c-4.13-2.27-6.76-5.2-4.27-10.86C586.73,988.13,586.51,983.5,587.14,979.19Z" transform="translate(-195.77 -571.46)"/><path class="cls-1" d="M472.52,924.19c-2.43-6-5-11.54-1-18.24s7-14,10.62-20.89c.66-1.27,2.09-2.15,3.16-3.21.87,1.3,2.14,2.5,2.54,3.93,1.69,6.14,0,11.76-2.87,17.25a14,14,0,0,0-1.36,6.12C483.53,914.65,478.4,922.06,472.52,924.19Z" transform="translate(-195.77 -571.46)"/><path class="cls-1" d="M607,924.33c-6.8-3-11-10-10.48-16.43a7.88,7.88,0,0,0-1.43-4.28A23.58,23.58,0,0,1,592,885.45c.3-1.34,1.85-2.41,2.82-3.6a16,16,0,0,1,2.77,3.08c3.42,6.65,6.2,13.68,10.14,20C612,911.76,610.28,917.75,607,924.33Z" transform="translate(-195.77 -571.46)"/><path class="cls-1" d="M492.11,979.26c1.27,5.44,2.64,10.84,3.73,16.28a4.81,4.81,0,0,1-1,3.47,16.71,16.71,0,0,1-14.31,6.59,4.77,4.77,0,0,1-3.53-2.51c-2.44-6.88-2.33-13.68,2-19.93a4.88,4.88,0,0,1,2.72-1.67C485.16,980.62,488.72,980,492.11,979.26Z" transform="translate(-195.77 -571.46)"/><path class="cls-1" d="M518.47,805.62c5.24,5.4,8.23,11.1,6.34,18.83l4.72-.75c5.91,8.34,0,18-12.86,20.57-.76-5-3.62-10.92-1.85-14.71C518.5,821.68,514.85,813.16,518.47,805.62Z" transform="translate(-195.77 -571.46)"/><path class="cls-1" d="M537.48,849.83c4-1.15,6,.41,6.62,4.43.27,1.71,1.42,3.35,2.4,4.88,4.23,6.61,2.61,16.18-3.88,20.49a5.58,5.58,0,0,1-5.08,0c-6.77-4.81-8.25-13.84-4.06-20.91C535.07,856,536.08,853,537.48,849.83Z" transform="translate(-195.77 -571.46)"/><path class="cls-1" d="M562.38,805.66c.35,6.25-.71,13,1.41,18.6,2.69,7-1.2,13-.13,19.41-11.46.42-18.57-9.72-14-19.88l4.91.44a21.51,21.51,0,0,1,5.78-18.42Z" transform="translate(-195.77 -571.46)"/><path class="cls-1" d="M589.19,904.21c-9.1,2-16.48-1.13-18.77-8.75-.77-2.55-2.27-5.62,2.46-6.41.76-.12,1.48-2,1.74-3.25.76-3.5,1.27-7,1.88-10.57l11.6,6.36C588.46,889.13,588.82,896.59,589.19,904.21Z" transform="translate(-195.77 -571.46)"/><path class="cls-1" d="M490.81,904.49c0-7.25-.09-13.77.09-20.3a4.61,4.61,0,0,1,1.87-3.32c3.23-2,6.68-3.54,10.46-5.48.44,2.57.81,5.28,1.39,7.94s-.05,5.91,4.1,6.4c.49.06,1,2.23,1,3.4-.17,5.45-4.91,10.48-10.9,11.3A55.74,55.74,0,0,1,490.81,904.49Z" transform="translate(-195.77 -571.46)"/><path class="cls-1" d="M581.72,820.19c2.54,2,5.07,3.89,7.38,6a4.39,4.39,0,0,1,1.06,2.9c.09,6.34.05,12.67.05,19.63-7.88,3.57-17.67-1.77-18.45-11.72h4C579,822.29,579,822.29,581.72,820.19Z" transform="translate(-195.77 -571.46)"/><path class="cls-1" d="M499,819l5.76,17.91,3.93-.31c-1,2.73-1.45,5.17-2.69,7.09-3.46,5.35-10.45,7.1-16.54,5.19,0-7,0-13.64.05-20.24a3.81,3.81,0,0,1,1.11-2.46c2.3-2.12,4.74-4.08,7.13-6.1Z" transform="translate(-195.77 -571.46)"/><path class="cls-1" d="M435.87,906.8c-1-14.14,4.12-25.07,10.15-35.71.36-.63,2-1,2.92-.77,2.86.71,5.64,1.75,9,2.84C452.14,885.22,448.25,897.92,435.87,906.8Z" transform="translate(-195.77 -571.46)"/><path class="cls-1" d="M621.54,872.94a12.76,12.76,0,0,1,1.86-1.16c9.47-3.15,9.5-3.16,13.84,5.91,4.09,8.56,7.19,17.36,6.22,28.3C631.12,897.47,627.37,884.7,621.54,872.94Z" transform="translate(-195.77 -571.46)"/><path class="cls-1" d="M528.77,969.14c3.15,3.54,5.54,5.84,7.42,8.5a6.36,6.36,0,0,1,1.1,4.83C534.5,991,529,997,520.37,1000c-3,1.08-4.45,0-4.54-3.06-.05-1.64-.31-3.48.3-4.9,1.75-4,3.79-8,5.93-11.84C524.07,976.59,526.35,973.12,528.77,969.14Z" transform="translate(-195.77 -571.46)"/><path class="cls-1" d="M550.34,970.2c8,6.72,14.82,22.83,12.62,30.24-8.7-.08-20.82-11.33-20.92-19.58a5,5,0,0,1,1.35-3C545.62,975.27,548,972.76,550.34,970.2Z" transform="translate(-195.77 -571.46)"/><path class="cls-1" d="M588.78,954.86c10,.52,5.27-8.26,9.24-12.52a31.38,31.38,0,0,1,1.39,4.25c.67,3.89,1.57,7.81,1.66,11.73a122.35,122.35,0,0,1-.79,16.57c-.11,1.05-2.58,2.68-3.87,2.6-6.72-.41-11.64-3.87-15.69-10.42C590.81,967.41,588.56,960.55,588.78,954.86Z" transform="translate(-195.77 -571.46)"/><path class="cls-1" d="M459.33,938.38c6.6,11.3,6.6,11.3,17,9.23a20.35,20.35,0,0,1-13.53,22C457.16,959.77,452.24,949.93,459.33,938.38Z" transform="translate(-195.77 -571.46)"/><path class="cls-1" d="M617.06,969.46c-8.83-2.24-15.19-12.4-13.9-22,10.16,2.22,10.16,2.22,17.29-8.94C627.65,949.8,622.44,959.63,617.06,969.46Z" transform="translate(-195.77 -571.46)"/><path class="cls-1" d="M481.73,942.57c4,3.93-.84,13,8.94,12.26.78,5-2.26,12.34,7.17,12.08-1.32,6-10.53,12.11-15.93,10.6a4.05,4.05,0,0,1-2.5-2.58c-.68-4.86-1.51-9.79-1.33-14.66.19-5,1.45-10.07,2.33-15.08A11.07,11.07,0,0,1,481.73,942.57Z" transform="translate(-195.77 -571.46)"/><path class="cls-1" d="M595.77,1098.41c-4-1.62-7.45-2.3-10-4.16-7.27-5.23-13.59-20.78-12.79-30.34,4.17,1.91,8.31,3.77,12.41,5.72a2.79,2.79,0,0,1,1.17,1.49C589.42,1079.54,592.25,1088,595.77,1098.41Z" transform="translate(-195.77 -571.46)"/><path class="cls-1" d="M484.43,1096.82c3-8.72,5.81-17.15,8.74-25.54a3.4,3.4,0,0,1,1.51-1.8c3.95-1.92,8-3.72,11.94-5.56C508.65,1079.17,495.52,1098.61,484.43,1096.82Z" transform="translate(-195.77 -571.46)"/><path class="cls-1" d="M466.07,918.57l5.05,11.62,11.15-7.27c4.42,8.81-2.24,21.6-12.29,22.7a4,4,0,0,1-3.26-1.37C462.23,936.87,459,928.59,466.07,918.57Z" transform="translate(-195.77 -571.46)"/><path class="cls-1" d="M608.63,930.26c2-4.57,3.43-7.86,4.91-11.25,5.79,7.22,5.38,20-.93,25.71-1,.88-3.45.81-4.91.28-9.37-3.36-13-11.33-10.61-22.4Z" transform="translate(-195.77 -571.46)"/><path class="cls-1" d="M511.07,1125.27c2.49-14,5.59-27.11,10.38-39.89,2.82,5.52.16,12.63,6.63,16.43C526.77,1115.17,521.23,1123.25,511.07,1125.27Z" transform="translate(-195.77 -571.46)"/><path class="cls-1" d="M568.18,1126.34c-3.82-2.5-7.67-3.74-9.34-6.37-3-4.8-4.82-10.4-7-15.71-.29-.69-.33-2.1.06-2.37,6.09-4.08,3.95-10.7,5.38-17.38,1.34,2,2.73,3.18,3.09,4.65,2.73,11.12,5.26,22.3,7.83,33.46A26.36,26.36,0,0,1,568.18,1126.34Z" transform="translate(-195.77 -571.46)"/><path class="cls-1" d="M540.33,1204.6c-7.13-6.24-8.73-12.63-6.13-20.77,2.09-6.55,3.7-13.27,5.61-20.26,2.41,8.32,5.08,16.11,6.85,24.1C548.11,1194.21,544.58,1199.46,540.33,1204.6Z" transform="translate(-195.77 -571.46)"/><path class="cls-1" d="M528,872.54c1.9,3,4.09,6.1,5.85,9.42,2.17,4.08-.66,12-5.94,15-3.12,1.8-7.05,2.21-10.61,3.25-.32-3.18-1.2-6.45-.77-9.53.35-2.49,2.1-4.87,3.56-7.09C522.55,880,525.24,876.43,528,872.54Z" transform="translate(-195.77 -571.46)"/><path class="cls-1" d="M699.42,774.5c-.34-11.64-8.75-12.92-17.3-13.71l17.55-13.56c5.05,3.11,8.08,8.59,7.8,15.76C707.26,768.05,705.43,772.28,699.42,774.5Z" transform="translate(-195.77 -571.46)"/><path class="cls-1" d="M380.25,747.24l17.1,13.51c-7.77,1.13-16.89,1.61-16.79,13.39-5.12-.93-7.1-4.14-7.89-8.26C371.08,757.61,373.91,751.31,380.25,747.24Z" transform="translate(-195.77 -571.46)"/><path class="cls-1" d="M584,1204.55c-16.76-6.64-21.14-19.6-20-36.63C570.16,1180.82,585.88,1187.24,584,1204.55Z" transform="translate(-195.77 -571.46)"/><path class="cls-1" d="M530.26,1001.09c-.48,3-.27,6.37-1.6,8.95-3.49,6.81-9.3,11.08-16.77,13.09-3.92,1.05-5.11-.53-4.91-4.24a15.6,15.6,0,0,1,11.81-14.49c3.31-.86,6.43-2.46,9.64-3.72Z" transform="translate(-195.77 -571.46)"/><path class="cls-1" d="M551.66,873.23c3.21,3.89,7.44,7.5,9.6,12.08,1.89,4,1.54,9.14,2,13.8,0,.38-1.77,1.31-2.72,1.33-7.53.12-15.24-7.62-15.1-15.14a8,8,0,0,1,1.08-3.7C548.19,878.59,550.11,875.7,551.66,873.23Z" transform="translate(-195.77 -571.46)"/><path class="cls-1" d="M607.49,1019.23c14.69,3.48,14.48,8.6,16.09,17.46.65,3.6-1.07,5.93-4.36,7.44a18.43,18.43,0,0,1-17.32-.56C616.69,1038.49,610.15,1028.69,607.49,1019.23Z" transform="translate(-195.77 -571.46)"/><path class="cls-1" d="M550.9,1000.83c4.59,1.49,8.77,2.93,13,4.18,5.46,1.61,9.54,10.2,8.21,18.3-8,.13-14-3.82-18.82-9.72C550.17,1009.8,547.45,1005.73,550.9,1000.83Z" transform="translate(-195.77 -571.46)"/><path class="cls-1" d="M516.14,1169.08c-.71,20.38-7.06,31.54-20.33,35a21.12,21.12,0,0,1,3.91-16C504.74,1181.37,510.68,1175.32,516.14,1169.08Z" transform="translate(-195.77 -571.46)"/><path class="cls-1" d="M472.27,1019c-2.72,9.65-9,19.34,5.2,24.47-5.78,3.67-15.21,3.15-19.41-1a7.25,7.25,0,0,1-1.81-4.38c-.56-8.63,3.38-14.45,11.51-17.41C469,1020.23,470.22,1019.75,472.27,1019Z" transform="translate(-195.77 -571.46)"/><path class="cls-1" d="M568,994.86c8.89-1.24,12.57,5.83,18.19,10,4.52,3.38,5.63,6.94,4.69,11.89,0,.15-.18.28-.27.42C579.43,1018.91,566.54,1006.1,568,994.86Z" transform="translate(-195.77 -571.46)"/><path class="cls-1" d="M604,1049.36c9.3,0,16.44,5.88,18,14.66a4,4,0,0,1-.87,3c-4.65,5.07-16.35,5.81-22.52,1.56C608,1060.85,608,1060.85,604,1049.36Z" transform="translate(-195.77 -571.46)"/><path class="cls-1" d="M475.78,1049.14c-4.22,12.67-4.22,12.67,5.3,19.11-5.27,4.71-18.69,3.92-22.65-1.48a4.8,4.8,0,0,1-.41-3.63C460.48,1054.2,466.13,1049.71,475.78,1049.14Z" transform="translate(-195.77 -571.46)"/><path class="cls-1" d="M609.08,993.91c4.53,1.62,7.49,4,9,9.49,1.37,4.94,6,9,9.18,13.43-6.1,4.46-17.38,1-21.78-4.36a3.67,3.67,0,0,1-1-2.61C605.92,1004.65,607.48,999.49,609.08,993.91Z" transform="translate(-195.77 -571.46)"/><path class="cls-1" d="M470.55,993.44c1.62,5.82,3.09,10.87,4.36,16a4,4,0,0,1-.73,3c-4.68,5.78-16.21,8.67-22.87,3.6,6.43-4.16,10.81-9.41,11.84-17.42C463.41,996.61,467.93,995.17,470.55,993.44Z" transform="translate(-195.77 -571.46)"/><path class="cls-1" d="M565.67,1037.89a41.74,41.74,0,0,1-6.33-2c-7.23-3.62-12.22-9.45-16-16.5-2.27-4.23-2.26-7.54,3.15-9.57a37.44,37.44,0,0,0,17.53,16C566.79,1027,567.3,1031.7,565.67,1037.89Z" transform="translate(-195.77 -571.46)"/><path class="cls-1" d="M533.51,1009.7c4.72,2,5.19,5.13,3.07,9.25-3.91,7.6-9.28,13.74-17.14,17.39a32.9,32.9,0,0,1-5,1.44c-2.65-6.69-1.3-10.31,4-13.43a45.64,45.64,0,0,0,8.69-6.55C529.57,1015.43,531.4,1012.43,533.51,1009.7Z" transform="translate(-195.77 -571.46)"/><path class="cls-1" d="M488.89,1017.29c-.88-5.2-.75-9.54,4.58-12.08a6.85,6.85,0,0,0,3.29-3c2.78-6.5,8.93-6.31,14.28-7.81C514.7,1004.39,501.67,1018,488.89,1017.29Z" transform="translate(-195.77 -571.46)"/><path class="cls-1" d="M540,812.84a79.78,79.78,0,0,1,5.2,6.84c.64,1.05.54,2.65.53,4,0,3.76-.72,7.59-.16,11.24.65,4.27-1.14,7.11-3.94,9.59a3.59,3.59,0,0,1-3.41,0c-3.06-2.31-5-5.21-3.84-9.44.56-2,1.43-4.64.68-6.32C532,822,535.62,817.55,540,812.84Z" transform="translate(-195.77 -571.46)"/><path class="cls-1" d="M622.33,995c-14.71-1.22-21.19-11.59-16.21-27,3.26,1.88,6.57,3.66,9.73,5.69a4.89,4.89,0,0,1,1.69,2.74C619.2,982.55,620.73,988.73,622.33,995Z" transform="translate(-195.77 -571.46)"/><path class="cls-1" d="M473.39,968.08c6.14,14-1.71,26.51-16.12,26.86,1.63-6.08,3.28-12.39,5.06-18.67a5,5,0,0,1,1.76-2.69C467.11,971.62,470.28,969.89,473.39,968.08Z" transform="translate(-195.77 -571.46)"/><path class="cls-1" d="M578.41,927c4.42,1.87,8.12,3.25,11.62,5,1.25.63,2.86,2.18,2.89,3.34.12,5-.28,10-.52,15.69a23.44,23.44,0,0,1-14.74-9.87C574,936.09,579.09,931.85,578.41,927Z" transform="translate(-195.77 -571.46)"/><path class="cls-1" d="M500.84,927.19c3.63,12.23,1.09,18.55-8.87,22.57-2.55,1-4.31.87-4.59-2.15a91.86,91.86,0,0,1-.57-12.29c.05-1.17,1.67-2.68,2.94-3.32C493.25,930.23,496.94,928.85,500.84,927.19Z" transform="translate(-195.77 -571.46)"/><path class="cls-1" d="M518.6,1061.19c1.13,5.77,7.59,10.25,3.27,17.39-2.65,4.39-5.24,8.41-11,9.84-2.14-6.34-1.33-12.56-.45-18.76C511.36,1062.85,511.37,1062.85,518.6,1061.19Z" transform="translate(-195.77 -571.46)"/><path class="cls-1" d="M569.43,1088.24c-10.14-2.48-14.85-12.42-10.62-20.62a66.89,66.89,0,0,0,2.52-6.37c5.52.11,8.1,3,8.1,8.33Z" transform="translate(-195.77 -571.46)"/><path class="cls-1" d="M538.54,884.64c1.66,1.76,3,2.76,3.76,4.08,1.67,2.81,2.82,5.95,4.65,8.64,2.44,3.6,1.48,7-2.92,11.51-3.44,3.5-5.89,2.2-8.68-.62-4.7-4.75-4.9-7-1.07-12.65a25.49,25.49,0,0,0,2.46-4.86C537.34,889.24,537.68,887.62,538.54,884.64Z" transform="translate(-195.77 -571.46)"/><path class="cls-1" d="M572.15,830.49c-7.15-2.63-7.42-15.92-4.52-21.65a3.5,3.5,0,0,1,2.39-1.35c3.41-.5,6.85-.82,10.53-1.23.63,4.72,1.42,8.58-2.5,12.52C575.21,821.62,574.17,826.26,572.15,830.49Z" transform="translate(-195.77 -571.46)"/><path class="cls-1" d="M454.45,1061.26c-2.56,8.38,3.82,9.13,6.68,11.51l-17.68,22.39C442.15,1083,444.78,1071.93,454.45,1061.26Z" transform="translate(-195.77 -571.46)"/><path class="cls-1" d="M626.05,1062.77c8,7.24,12.09,20.77,10.09,32.2-5.69-7.23-11.47-14.6-17.26-22C626.35,1067.12,626.35,1067.12,626.05,1062.77Z" transform="translate(-195.77 -571.46)"/><path class="cls-1" d="M498.55,806.22c4.36.48,8.1.84,11.81,1.37a3.15,3.15,0,0,1,1.85,1.39c3.92,6,1.28,17.63-4.13,21.18-3-4.93-6.45-9.68-8.92-14.88C498,812.86,498.71,809.57,498.55,806.22Z" transform="translate(-195.77 -571.46)"/><path class="cls-1" d="M561.27,864.21c-7.61-1.61-12.18-5.33-14.32-11.68-1.28-3.79-2.33-7.78,1.53-10.65,4.27,2.2,8.42,4.2,12.41,6.48a4,4,0,0,1,1.74,3C562.4,855.47,561.8,859.54,561.27,864.21Z" transform="translate(-195.77 -571.46)"/><path class="cls-1" d="M502.41,969.35c.32,1.92.51,3.39.81,4.85,1.91,9.21,2.75,9.68,11.47,6.5.92-.34,1.85-.65,2.84-1-.3,7.65-11.38,15.39-18,12.62a4.11,4.11,0,0,1-1.89-2.59C495.9,982.64,495.42,975.08,502.41,969.35Z" transform="translate(-195.77 -571.46)"/><path class="cls-1" d="M561.76,980c12.79,3.14,12.79,3.14,15.58-10.15,5.53,4.52,7.8,15,4.34,21a4.44,4.44,0,0,1-3.13,1.68C570.83,993.16,564.1,988.21,561.76,980Z" transform="translate(-195.77 -571.46)"/><path class="cls-1" d="M518.58,864.23c-.6-4.62-1.29-8.84-1.59-13.08-.07-.93,1-2.33,2-2.86,3.86-2.18,7.86-4.11,12.1-6.27,3.53,2.66,3.07,6.44,1.74,10.38C530.59,859,525.92,862.61,518.58,864.23Z" transform="translate(-195.77 -571.46)"/><path class="cls-1" d="M513.55,863.78c.6,1.72,1.18,3.4,1.94,5.63l8.54-1.74c-.28,8.79-5.82,14.93-15.15,16.51-.74-4.16-1.5-8.34-2.21-12.54C505.85,866.72,507.07,863.35,513.55,863.78Z" transform="translate(-195.77 -571.46)"/><path class="cls-1" d="M570.91,884.42c-9.78-2.35-14.76-7.93-15.31-16.76l8.51,1.72c.71-2,1.4-4,2.09-5.87,7.06,1,7.46,1.39,6.74,7.93C572.47,875.67,571.63,879.86,570.91,884.42Z" transform="translate(-195.77 -571.46)"/><path class="cls-1" d="M553.54,966.52c7.84,2.13,7.09-4.69,9.44-8.52,3.15,2.25,7.69,3.87,9,6.91,1.52,3.41.15,8.11,0,12.24-2.37-.06-5.19.67-7-.35-4.35-2.4-8.24-5.63-12.31-8.53Z" transform="translate(-195.77 -571.46)"/><path class="cls-1" d="M516.5,958c4.39,8.8,4.39,8.8,10.34,9a27.54,27.54,0,0,1-16.47,11.36,2.91,2.91,0,0,1-2.24-.56c-2.95-2.57-2.15-12,1-14.21C511.66,961.84,514,959.87,516.5,958Z" transform="translate(-195.77 -571.46)"/><path class="cls-1" d="M561.63,913.77c3.93,2.67,7.53,5.18,11.2,7.57,2.29,1.48,2.77,7.76.79,11.8-1.79,3.66-4.22,1.11-6.3.54a12.79,12.79,0,0,1-3.88-2.15c-5.36-3.91-6-6.25-3.73-12.44C560.39,917.25,561,915.39,561.63,913.77Z" transform="translate(-195.77 -571.46)"/><path class="cls-1" d="M517.89,914c5.71,12.32,2.17,19.32-11.46,21-.56-3.45-1.3-6.93-1.59-10.45-.08-1,1-2.36,1.88-3C510.28,918.93,514,916.58,517.89,914Z" transform="translate(-195.77 -571.46)"/><path class="cls-1" d="M585.44,768.84c0,1.54.07,2.2,0,2.85C584,784,581,786,567.11,783.3c1.47-4.37,1.72-10.12,4.68-12.49S580.43,769.4,585.44,768.84Z" transform="translate(-195.77 -571.46)"/><path class="cls-1" d="M494.32,769.14c2.11.13,3.6.21,5.09.32,2.9.2,7.37-.64,8.38.85,2.46,3.65,3.32,8.39,5.32,14.1-6.13-.49-10.74-.52-15.19-1.41-1.28-.25-2.61-2.84-3-4.56C494.35,775.57,494.5,772.54,494.32,769.14Z" transform="translate(-195.77 -571.46)"/><path class="cls-1" d="M457.17,761.37c4.81.4,9.56.67,14.26,1.32.89.13,2.06,1.69,2.26,2.75.67,3.69,1,7.45,1.41,11.1C463.77,779.12,458.67,774.7,457.17,761.37Z" transform="translate(-195.77 -571.46)"/><path class="cls-1" d="M599.86,777.37c4.88,15.41,1.53,16.26-13.11,17.09C584.58,782.78,586.61,780.07,599.86,777.37Z" transform="translate(-195.77 -571.46)"/><path class="cls-1" d="M604.45,776.82c.55-4,1-8,1.74-12a3.37,3.37,0,0,1,2.24-2.15c4.55-.57,9.14-.85,13.73-1.23C622.3,773.28,616.56,778.46,604.45,776.82Z" transform="translate(-195.77 -571.46)"/><path class="cls-1" d="M478.47,777.06c14.9,3.12,15.9,4.39,14.78,18.45-4.81-1.35-10.95-1.3-13.57-4.31C477.3,788.46,478.75,782.4,478.47,777.06Z" transform="translate(-195.77 -571.46)"/><path class="cls-1" d="M522.39,931.88c4.64,11.56,1.43,17.25-12.4,19.55-.49-3.46-1.11-6.92-1.37-10.4a3.61,3.61,0,0,1,1.71-2.58C514.3,936.15,518.38,934,522.39,931.88Z" transform="translate(-195.77 -571.46)"/><path class="cls-1" d="M539.86,930.43c2.19,3.24,4.94,6.15,6.23,9.61a12.1,12.1,0,0,1-.59,8.29c-1,2.16-3.88,5.2-5.46,4.94-2.25-.37-4.75-3.07-5.88-5.39a10.8,10.8,0,0,1-.51-7.81C535,936.64,537.66,933.71,539.86,930.43Z" transform="translate(-195.77 -571.46)"/><path class="cls-1" d="M539.89,987.08c2.23,3,4.42,5.64,6.35,8.48,2.55,3.76-1.23,13.25-5.68,13.4-1.86.07-4.64-2.17-5.53-4.06-1.28-2.72-2.29-6.41-1.45-9.07C534.59,992.61,537.65,990,539.89,987.08Z" transform="translate(-195.77 -571.46)"/><path class="cls-1" d="M569.36,953.15c-5.22-3.29-9.64-5.3-13.06-8.41-4.6-4.18,1.66-8.59-.06-13.4,5,2.65,9.39,4.78,13.52,7.29,1,.58,1.64,2.52,1.54,3.77C571.07,945.33,570.3,948.21,569.36,953.15Z" transform="translate(-195.77 -571.46)"/><path class="cls-1" d="M518.66,1041.53c0,4.42.07,8.54,0,12.65-.07,3.12-5.31,5.78-10.25,5.61-4.05-.15-3.81-2.89-3.75-5.59C504.8,1048,510.55,1040.11,518.66,1041.53Z" transform="translate(-195.77 -571.46)"/><path class="cls-1" d="M582.82,1109.16c-7.92,2.78-16.19-5.37-17.6-17.67,5.77,2.79,7.74-.67,8.53-5.33Z" transform="translate(-195.77 -571.46)"/><path class="cls-1" d="M509.47,1027.94c.76,10-4.13,14.64-13.44,13-3-.54-4.59-2.35-3.27-4.71,2.08-3.73,4.56-7.72,7.95-10C502.43,1025,506.5,1027.24,509.47,1027.94Z" transform="translate(-195.77 -571.46)"/><path class="cls-1" d="M569.28,1028.86c3.34-1.47,5.3-2.48,7.36-3.18a3.83,3.83,0,0,1,2.76.25,14,14,0,0,1,7.85,11.38c.09,1-1.21,3-1.72,3-4.48-.42-9.51-.2-13.18-2.27C570.17,1036.78,570.14,1031.75,569.28,1028.86Z" transform="translate(-195.77 -571.46)"/><path class="cls-1" d="M539.85,1021c2.33,3.17,5.19,5.81,6.38,9.07.87,2.39.19,5.88-1,8.32-.92,1.93-3.57,4.1-5.57,4.22-4.33.26-8.68-8.75-6.31-12.62C535.25,1027,537.58,1024.16,539.85,1021Z" transform="translate(-195.77 -571.46)"/><path class="cls-1" d="M512.33,803.58c-4.32-.42-8.25-.61-12.09-1.3a4,4,0,0,1-2.36-3c-.28-3.92-.11-7.88-.11-11.84C508.79,786.73,511.76,789.75,512.33,803.58Z" transform="translate(-195.77 -571.46)"/><path class="cls-1" d="M581.93,787.11c0,4.48.14,8.59-.1,12.68a3.56,3.56,0,0,1-2.26,2.53c-3.87.62-7.8.84-11.69,1.2C566.66,791.76,570.07,788,581.93,787.11Z" transform="translate(-195.77 -571.46)"/><path class="cls-1" d="M497,1109c3.05-7.75,5.95-15.14,9.07-23.06.89,4.5,2.17,8.6,7.87,5.55C515.06,1101.8,504.75,1112.26,497,1109Z" transform="translate(-195.77 -571.46)"/><path class="cls-1" d="M560.89,1041.36c9.09.34,14.84,6.5,14.17,14.56-.22,2.6-1.27,3.8-4,3.87-6.67.17-9.74-2.78-9.61-9.2C561.52,1047.65,561.11,1044.7,560.89,1041.36Z" transform="translate(-195.77 -571.46)"/><path class="cls-1" d="M546.27,794.31l14.76-11c-.6,1.2-1.19,2.39-1.78,3.59l5.32,4.12,2-1.83c-.69,2-1.4,4-2.07,6.09-2.31,7.05-3.13,7.5-10,4.32C552.07,798.49,549.91,796.69,546.27,794.31Z" transform="translate(-195.77 -571.46)"/><path class="cls-1" d="M513.33,789.74l5.68-6,13.57,9.8c-3.8,5.43-8.39,7-13.33,7.77-.81.12-2.34-1-2.7-1.95C515.21,796,514.22,792.49,513.33,789.74Z" transform="translate(-195.77 -571.46)"/><path class="cls-1" d="M567,955.76c8.34.34,5.49-7.2,8.61-11.16,3.06,4.64,9.56,6.15,9.81,13,.18,4.94-1.08,6.41-6,5.48C574.63,962.18,570.24,960.53,567,955.76Z" transform="translate(-195.77 -571.46)"/><path class="cls-1" d="M471.64,758.08c-11.15,2-15.66-.44-21.5-11.83C462.2,743.28,469.49,747.3,471.64,758.08Z" transform="translate(-195.77 -571.46)"/><path class="cls-1" d="M608.11,757.87c2.57-10.65,7.61-13.47,21.5-12C625,757,618.59,760.56,608.11,757.87Z" transform="translate(-195.77 -571.46)"/><path class="cls-1" d="M512.64,957.36c-3.42,1.75-6.7,3.95-10.32,5.1-2.2.7-4.91-.21-7.39-.4.4-3.35-.09-7.19,1.44-9.91,1.65-2.94,5.19-4.83,7.89-7.18,3.17,3.42-.14,11.19,8.2,10.64Z" transform="translate(-195.77 -571.46)"/><path class="cls-1" d="M496.42,908.87c.52,3.51.79,6.32,1.38,9.07a7.55,7.55,0,0,1-7.83,9.43,3.81,3.81,0,0,1-2.7-2.55,103.17,103.17,0,0,1-.24-13.39c0-.9,1.7-2.24,2.8-2.45C491.88,908.58,494.06,908.87,496.42,908.87Z" transform="translate(-195.77 -571.46)"/><path class="cls-1" d="M530.79,965.46c3.13-3.32,4.93-6.84,7.56-7.65,3.87-1.19,8.73,3.47,8.87,7.17s-5.3,11.39-7.22,10.08C536.7,972.81,534.3,969.26,530.79,965.46Z" transform="translate(-195.77 -571.46)"/><path class="cls-1" d="M583.25,909h9.31c0,5.49.06,10.86-.07,16.21,0,.76-1.26,2.22-1.52,2.14a38.74,38.74,0,0,1-8.47-3.5c-.91-.58-1-3.07-.82-4.64C582,915.94,582.65,912.72,583.25,909Z" transform="translate(-195.77 -571.46)"/><path class="cls-1" d="M527.41,902.54c1.47,2.29,2.48,5,4.4,6.63,4.28,3.64,2.64,6.44-.6,9.27-1.59,1.39-3.37,2.56-5.34,4a25.11,25.11,0,0,1-5-15.53C520.82,903.66,522,903.06,527.41,902.54Z" transform="translate(-195.77 -571.46)"/><path class="cls-1" d="M552.6,902.1c7.8,2.21,8.39,10,1.25,20.28-1.85-1.35-3.8-2.59-5.52-4.07-3.15-2.7-4.68-5.35-.51-8.85C549.86,907.74,550.89,904.83,552.6,902.1Z" transform="translate(-195.77 -571.46)"/><path class="cls-1" d="M611.6,742.62c-6.11,13-9.39,14.84-21.62,12.25,2.85-3.89,4.73-8.53,8.14-10.49S606.47,743.16,611.6,742.62Z" transform="translate(-195.77 -571.46)"/><path class="cls-1" d="M488.82,755.09c-11.38,2.34-14.89.35-19.77-10.92C479.25,740.88,485.28,744.14,488.82,755.09Z" transform="translate(-195.77 -571.46)"/><path class="cls-1" d="M435.66,761.46h9.1c9.21.07,9.51.28,10.57,9.41a50,50,0,0,1,0,6.1c-5.83-3.7-11.38-7.08-16.74-10.74C437.44,765.43,437,763.62,435.66,761.46Z" transform="translate(-195.77 -571.46)"/><path class="cls-1" d="M589.5,774.85c-.44-11.41,2.83-15.66,11.45-15.2C604.16,770.7,600.65,775.8,589.5,774.85Z" transform="translate(-195.77 -571.46)"/><path class="cls-1" d="M479.05,759.48c8.38,0,12.06,5.17,11,16.44-3.83-1.3-8.79-1.49-10.61-4C477.2,768.86,475.58,763.9,479.05,759.48Z" transform="translate(-195.77 -571.46)"/><path class="cls-1" d="M552.44,1074.31v21.75c-6-2-11.6-8.28-10.05-12.77C543.57,1079.89,548.38,1077.75,552.44,1074.31Z" transform="translate(-195.77 -571.46)"/><path class="cls-1" d="M527.32,1096.56v-21.39c3.15,1.84,6.29,3.52,9.22,5.51a3.5,3.5,0,0,1,1,3C536.44,1089,534.25,1093.7,527.32,1096.56Z" transform="translate(-195.77 -571.46)"/><path class="cls-1" d="M551.25,945.06c2.26,2,4.5,3.74,6.4,5.79.92,1,2,2.79,1.63,3.82-.9,2.93-1.8,6.54-4,8.19-2,1.53-8.48-3.84-9.12-7.08a4.43,4.43,0,0,1,.53-2.71C548.09,950.44,549.63,947.9,551.25,945.06Z" transform="translate(-195.77 -571.46)"/><path class="cls-1" d="M624.64,776.85c-.06-1-.25-2.41-.23-3.86.13-10.86,6.63-15.32,16.92-11.53.69.26,1.62,1.6,1.45,2.09a6,6,0,0,1-2.16,2.91C635.45,769.94,630.18,773.27,624.64,776.85Z" transform="translate(-195.77 -571.46)"/><path class="cls-1" d="M550.23,817.44c-7-4-9.51-11.51-6.09-19.38l11.91,6.47Z" transform="translate(-195.77 -571.46)"/><path class="cls-1" d="M528.67,944.79c1.08,2.14,1.85,3.93,2.83,5.6,3.24,5.5.34,11.58-6.21,12.45a4.32,4.32,0,0,1-3.38-1.78c-2.6-4.2-1.72-8.59,2-11.75C525.36,948,526.75,946.6,528.67,944.79Z" transform="translate(-195.77 -571.46)"/><path class="cls-1" d="M528.82,1035.18c1.52,2.56,2.55,5.11,4.28,7,2.61,2.86,1.39,5.22-1,6.61-2.79,1.66-6.16,2.37-9.31,3.38-.16,0-.79-1-1-1.54C520.07,1045.57,523.41,1038,528.82,1035.18Z" transform="translate(-195.77 -571.46)"/><path class="cls-1" d="M535.42,798c3.53,7.55,1.46,14.53-5.77,19.49l-5.95-12.76Z" transform="translate(-195.77 -571.46)"/><path class="cls-1" d="M545.05,1045.21l6.23-10c6.1,3.59,7.94,8.83,5.89,16.91C551.5,1052.85,548.24,1051,545.05,1045.21Z" transform="translate(-195.77 -571.46)"/><path class="cls-1" d="M589.93,798.94c-1.12,7.64.4,13.68,4.49,19.16.74,1-.26,3.28-.45,5-1.37-.29-3-.22-4.06-.92-5.25-3.33-7.56-17.11-3.7-21.86C586.7,799.68,587.9,799.64,589.93,798.94Z" transform="translate(-195.77 -571.46)"/><path class="cls-1" d="M484.61,823.8c.61-2.94.51-5.28,1.54-6.91,3.32-5.27,5-10.77,3.74-17.16,4.13-1.34,4.37,1.63,4.82,4.15C496.64,814.46,493.59,821.46,484.61,823.8Z" transform="translate(-195.77 -571.46)"/><path class="cls-1" d="M551.89,939c-7.12-4.09-11-13.53-9.67-21.09,3.27,2.58,7,4.84,9.85,8C555.76,929.9,552.33,934.15,551.89,939Z" transform="translate(-195.77 -571.46)"/><path class="cls-1" d="M537.45,916.57c.86,10.78-2.92,19.28-8.88,21.62-3.76-6.85-3-10.26,2.78-15C533.36,921.52,534.93,919.33,537.45,916.57Z" transform="translate(-195.77 -571.46)"/><path class="cls-1" d="M597.58,815.75c-3.7-4.57-6.23-9.41-4.11-14.73,1-2.63,4.62-4.25,7.4-6.61,2.65,4.17,3,6.62.69,10C599.53,807.41,599,811.43,597.58,815.75Z" transform="translate(-195.77 -571.46)"/><path class="cls-1" d="M482.57,814.92c-2.13-4.58-4.46-8.86-6-13.4-.57-1.66.67-3.94,1.44-7.69,3.56,2.9,7.33,4.46,8.25,7C488.08,806,486.33,811.13,482.57,814.92Z" transform="translate(-195.77 -571.46)"/><path class="cls-1" d="M586.36,752.37c-.58,2.35-1,3.87-1.33,5.42l4.07,1.88c-2.22,6.28-7.19,7.8-15.42,4.59C576,758.59,580.31,755.25,586.36,752.37Z" transform="translate(-195.77 -571.46)"/><path class="cls-1" d="M494.91,752.1l11.94,11.41c-8,4.14-13.94,2.48-16.14-3.7,1.21-.67,2.46-1.36,3.84-2.14-.3-1.53-.6-3.07-.89-4.6Z" transform="translate(-195.77 -571.46)"/><path class="cls-1" d="M508.24,862.3c-1.36-4.68-2.3-7.49-2.93-10.36a4.52,4.52,0,0,1,.71-3c2-3.16,4.23-6.2,6.92-10.09-.9,3.73-1.64,6.82-2.45,10.16,4.66,1.11,3.16,5.23,2.81,8.26C513.12,858.78,510.58,860.06,508.24,862.3Z" transform="translate(-195.77 -571.46)"/><path class="cls-1" d="M506.89,917.26c-.73-11.24-.73-11.24,4.8-17.62,1.36,2,2.76,4.07,4.62,6.83A15.41,15.41,0,0,1,506.89,917.26Z" transform="translate(-195.77 -571.46)"/><path class="cls-1" d="M620.84,779.39c-3,2.28-6.66,4.09-8.91,7s-3.36,7.08-4.87,10.48c-5-5.92-2.55-14.46,5.09-16.5,2.55-.68,5.05-1.52,7.57-2.29C620.1,778.5,620.47,779,620.84,779.39Z" transform="translate(-195.77 -571.46)"/><path class="cls-1" d="M473,797.58c-1.85-4.19-2.85-8.22-5.17-11.21s-5.81-4.61-8.79-6.84l.78-1.72c4.56,1.64,10.41,2.08,13.34,5.23C476.42,786.62,475.63,792.55,473,797.58Z" transform="translate(-195.77 -571.46)"/><path class="cls-1" d="M563.42,906.49l4.4-6.7c7,3.67,4.09,11.07,5.88,17.84C567.64,915.19,564.71,911.22,563.42,906.49Z" transform="translate(-195.77 -571.46)"/><path class="cls-1" d="M566.93,839.79c2.86,3.82,6,6.24,6.45,9.08.57,3.64-1,7.62-1.7,11.45-1.61-.54-3.75-.61-4.74-1.72-1.92-2.15-.25-8.06,2.33-9.76C568.6,846.26,567.94,843.67,566.93,839.79Z" transform="translate(-195.77 -571.46)"/><path class="cls-1" d="M476.56,1073.68l-7.11,14.85c-2.62-4.27-3.65-8.44-1.38-12C469.14,1074.82,472.87,1074.81,476.56,1073.68Z" transform="translate(-195.77 -571.46)"/><path class="cls-1" d="M610.11,1088.56c-1.3-3-2.17-5.13-3.16-7.2s-2.06-4-3.91-7.63c3.84,1.13,7.51,1.1,8.56,2.74C613.93,1080.11,613,1084.33,610.11,1088.56Z" transform="translate(-195.77 -571.46)"/><path class="cls-1" d="M478.3,738.06c-6.9,3.42-12.82,2-15-3.68C467.74,732.64,467.74,732.64,478.3,738.06Z" transform="translate(-195.77 -571.46)"/><path class="cls-1" d="M600.61,737.85c6-1.26,9.36-7.43,15.42-3.8C615.11,739.86,609.78,741.49,600.61,737.85Z" transform="translate(-195.77 -571.46)"/><path class="cls-1" d="M762.52,1060.38a92.33,92.33,0,0,1-9.3.37c-1.05-.06-2.92-1.4-2.86-2a5.36,5.36,0,0,1,2.06-3.54C755.72,1053,759.08,1054.49,762.52,1060.38Z" transform="translate(-195.77 -571.46)"/><path class="cls-1" d="M317.57,1059.49c3.26-6,6.89-7.57,10.24-5.1.92.68,1.89,2.18,1.75,3.16a3.6,3.6,0,0,1-2.64,2.24A88.17,88.17,0,0,1,317.57,1059.49Z" transform="translate(-195.77 -571.46)"/><path class="cls-1" d="M744.45,1034.86c-2.52,2.63-4.36,4.94-6.61,6.71-.88.7-2.7.23-4.09.28.13-1.36-.15-3,.48-4.06C736.3,1034.21,739.4,1033,744.45,1034.86Z" transform="translate(-195.77 -571.46)"/><path class="cls-1" d="M335.82,1034.18c5.16-2.22,8.19-.74,10.2,3.07.51,1,.16,2.4.2,3.61-1.38,0-3.18.49-4.05-.19C340,1038.92,338.16,1036.64,335.82,1034.18Z" transform="translate(-195.77 -571.46)"/><path class="cls-1" d="M652.72,1058.9l8.25-2.56c-.71,4.08-1.21,6.91-1.7,9.75l-1.12,1.12C656.4,1064.55,654.66,1061.88,652.72,1058.9Z" transform="translate(-195.77 -571.46)"/><path class="cls-1" d="M429.09,1058.59l-7.86,7.15-2.17-10.13Z" transform="translate(-195.77 -571.46)"/><path class="cls-1" d="M740.15,1088.62c6.33-3.27,9.25-.93,8.55,6.2Z" transform="translate(-195.77 -571.46)"/><path class="cls-1" d="M664.34,1067c-.62-1.1-2-2.46-1.72-3.26.59-1.75,2-3.22,3.1-4.8.74.69,2.2,1.52,2.09,2a41.17,41.17,0,0,1-2,6Z" transform="translate(-195.77 -571.46)"/><path class="cls-1" d="M676.7,1070.31c-.65-1.42-2-3-1.77-4.23.26-1.47,1.89-2.7,2.93-4,.47.27.95.53,1.43.79l-.9,7Z" transform="translate(-195.77 -571.46)"/><path class="cls-1" d="M577,916.58q-.43-4.4-.89-8.81l2.4-.26c.21,3,.42,5.89.64,8.84Z" transform="translate(-195.77 -571.46)"/><path class="cls-1" d="M402,1069.11c-.39-2.21-.79-4.42-1.18-6.62l1.1-1c1.14,1.1,3.07,2.1,3.22,3.33.2,1.51-1.08,3.2-1.73,4.82Z" transform="translate(-195.77 -571.46)"/><path class="cls-1" d="M501.34,916.33v-8.72l2,.06-.39,8.71Z" transform="translate(-195.77 -571.46)"/><path class="cls-1" d="M486.93,617.61c-7.33,14.26-9.17,29.16-5,44.65a58.15,58.15,0,0,0,17.49,28.43,58.93,58.93,0,0,0,34.95,15.37,60.05,60.05,0,0,0,63.54-45.17c3.94-15.61,1.63-30.46-6.18-44.64,3.19,1.55,11.79,15.54,14.51,23.27a70.83,70.83,0,0,1,4.12,27.31c-1,20.2-9.39,36.94-24.51,50.25a67.1,67.1,0,0,1-33.08,15.84,70.34,70.34,0,0,1-76.45-39C463.57,667.2,469.71,636.27,486.93,617.61Z" transform="translate(-195.77 -571.46)"/><path class="cls-1" d="M559.28,631.72c-1-.63-1.89-1.16-2.74-1.74-1.78-1.22-3.53-2.48-5.31-3.7-2.37-1.62-4.75-3.22-7.13-4.84-1.39-.94-2.75-1.92-4.16-2.81a1.17,1.17,0,0,0-1.05.12q-5.85,4.1-11.66,8.26c-2.25,1.6-4.47,3.24-6.71,4.85a2.78,2.78,0,0,1-.65.19c2.25-7.75,4.45-15.31,6.66-22.93l-19-14.15.09-.21c1.19-.07,2.38-.16,3.57-.2,3.75-.1,7.5-.17,11.24-.27,2.65-.07,5.3-.19,7.94-.23a1.08,1.08,0,0,0,1.21-.87c2.34-7,4.72-14,7.09-21a1.41,1.41,0,0,1,.45-.71c.3.74.63,1.47.9,2.23,1,2.87,2,5.76,3.08,8.64,1.3,3.61,2.63,7.21,3.92,10.82a.81.81,0,0,0,.92.64c4.06,0,8.12.07,12.18.12l10.44.13c.15,0,.3,0,.67.06-.48.41-.8.73-1.15,1-1.72,1.31-3.46,2.6-5.17,3.92-1.33,1-2.64,2.1-4,3.13s-2.68,2-4,3.07l-4.19,3.31a.79.79,0,0,0-.27,1q1.76,5.36,3.44,10.73c1.13,3.6,2.23,7.22,3.33,10.84A4.55,4.55,0,0,1,559.28,631.72Z" transform="translate(-195.77 -571.46)"/><path class="cls-1" d="M671.17,1068.61c-.65-1.42-2-3-1.77-4.23.26-1.47,1.89-2.7,2.93-4l1.43.79-.9,7Z" transform="translate(-195.77 -571.46)"/><path class="cls-1" d="M684.85,1105.32c-4.43-5.57-2.7-8.9,4.44-9.59Z" transform="translate(-195.77 -571.46)"/><path class="cls-1" d="M409.55,1068.09l-1.62-7.45.29-.28a.44.44,0,0,1,.59,0c1.14,1,2.78,1.93,2.92,3.06.18,1.39-.9,2.95-1.57,4.45a.44.44,0,0,1-.54.24Z" transform="translate(-195.77 -571.46)"/><path class="cls-1" d="M414.75,1065.77q-.58-3.32-1.19-6.63l1.11-1.05c1.14,1.1,3.07,2.11,3.22,3.33.19,1.51-1.09,3.21-1.73,4.83Z" transform="translate(-195.77 -571.46)"/><path class="cls-1" d="M326.53,1091.13c3.27-6,6.9-7.57,10.25-5.1.92.68,1.89,2.18,1.75,3.15a3.59,3.59,0,0,1-2.64,2.25A91.19,91.19,0,0,1,326.53,1091.13Z" transform="translate(-195.77 -571.46)"/><path class="cls-1" d="M399.31,1105.6c-6.77-.45-9.77-3-8.95-7.14.23-1.12,1.18-2.63,2.12-2.92a3.62,3.62,0,0,1,3.15,1.45A88.33,88.33,0,0,1,399.31,1105.6Z" transform="translate(-195.77 -571.46)"/></svg>